<?xml version='1.0' encoding='utf-8'?>
<svg xmlns="http://www.w3.org/2000/svg" width="210mm" height="210mm" version="1.1" style="shape-rendering:geometricPrecision; text-rendering:geometricPrecision; image-rendering:optimizeQuality; fill-rule:evenodd; clip-rule:evenodd" viewBox="0 0 21000 21000"> <defs> <style type="text/css">  .str1 {stroke:#373435;stroke-width:25} .str0 {stroke:#373435;stroke-width:20} .fil0 {fill:none} .fil9 {fill:#FEFEFE} .fil20 {fill:#FEFEFE} .fil14 {fill:#E6E7E8} .fil22 {fill:#4B4B4D} .fil3 {fill:#373435} .fil15 {fill:#373435} .fil18 {fill:#605F54} .fil17 {fill:#FCD3C2} .fil16 {fill:#FCD3C2} .fil4 {fill:#EFC8B1} .fil19 {fill:#FFCC29} .fil31 {fill:#BC8D2B} .fil6 {fill:#D9A08C} .fil32 {fill:#D9A08C} .fil21 {fill:#C59281} .fil24 {fill:#EBECEC} .fil25 {fill:#EBECEC} .fil2 {fill:#9AAFA3} .fil26 {fill:#BA8976} .fil7 {fill:#944C38} .fil23 {fill:#804131} .fil8 {fill:#91D8F7} .fil1 {fill:#9DD3AF} .fil11 {fill:#677EA3} .fil13 {fill:#5CC6D0} .fil10 {fill:#52658C} .fil30 {fill:#52658C} .fil29 {fill:#43516F} .fil12 {fill:#00AFEF} .fil27 {fill:#00AFEF} .fil28 {fill:#0081B8} .fil5 {fill:#373435;fill-rule:nonzero}  </style> </defs> <g id="Camada_x0020_1"> <metadata id="CorelCorpID_0Corel-Layer"/> <rect class="fil0" width="21000" height="21000"/> <path class="fil1" d="M10542 3803c3497,0 6332,1934 6332,4319 0,1308 -852,2480 -2198,3272 3086,1040 5208,3208 5208,5714 0,626 -133,1230 -379,1801l-17926 0c-247,-571 -379,-1175 -379,-1801 0,-2506 2122,-4674 5208,-5714 -1346,-792 -2199,-1964 -2199,-3272 0,-2385 2836,-4319 6333,-4319z"/> <ellipse class="fil2" cx="10276" cy="19000" rx="9950" ry="359"/> <g id="_2433169305440"> <path class="fil3" d="M13178 5953c287,243 336,674 289,1048 -57,458 -317,812 -750,893 -136,224 -310,419 -517,584 -293,232 -618,403 -964,517 21,8 42,15 64,22 584,192 1210,270 1822,299 468,21 930,9 1397,3l-125 -4363 65 -162 1069 -2654 1136 2661 60 151 30 13462 -4 0 0 117c0,239 -194,433 -433,433l-1461 0c-238,0 -432,-194 -432,-433l0 -117 -9 0 104 -6964c-637,439 -1404,690 -2181,654 12,120 23,240 32,360 28,375 105,1606 -54,1930l-68 140 -155 17c-18,2 -36,3 -54,5 -223,786 -378,1613 -507,2418 58,43 112,93 162,142 165,160 319,345 460,527 140,182 280,377 394,576 110,191 249,469 51,658 -62,58 -142,87 -226,87l-3861 -27 102 -461c9,-191 91,-497 122,-624 93,-390 195,-779 297,-1167 80,-300 161,-601 242,-901 -150,361 -303,721 -459,1080 -125,285 -251,570 -382,852 101,203 154,425 154,654 0,111 -12,221 -37,330l-51 218 -2989 0 -51 -218c-25,-109 -38,-219 -38,-330 0,-186 35,-370 105,-542 99,-361 226,-722 352,-1075 163,-455 335,-908 509,-1360 138,-356 279,-711 421,-1066l-95 -15 103 -478c-769,-547 -1303,-1384 -1308,-2348 -6,-1159 1665,-2487 2758,-2704 -375,-161 -733,-367 -1055,-613 -123,-95 -239,-199 -345,-313 -69,34 -141,62 -215,83 -699,203 -1260,-188 -1351,-915 -49,-390 0,-838 284,-1097 -134,-229 -283,-508 -322,-694 -36,-172 -68,-378 -40,-553 28,-172 123,-323 298,-376 12,-3 25,-6 37,-9 -19,-287 -2,-588 56,-835 69,-295 204,-570 437,-771 184,-158 437,-296 673,-154 32,19 60,42 84,67 18,-24 35,-47 52,-69 443,-581 1048,-962 1769,-1096 335,-62 1093,-207 1223,258 3,11 6,21 8,32 50,-11 100,-20 148,-29 593,-102 1207,-61 1758,196 193,89 416,211 559,373 109,123 170,276 145,435 292,46 570,149 707,354 35,53 59,112 69,175 35,223 -104,410 -266,546 42,65 65,140 71,219 10,145 -10,305 -59,453 147,85 259,223 293,413 54,292 -26,746 -107,1091z"/> <g> <path class="fil4" d="M11633 6977c-33,576 1340,1085 1480,-32 183,-1464 -1424,-945 -1480,32z"/> <path id="1" class="fil5" d="M13177 6902l0 0 -18 107 -26 101 -35 96 -44 90 -53 85 -60 75 -65 63 -66 51 -67 40 -67 31 -68 22 -69 15 -69 9 -69 2 -69 -4 -69 -9 -69 -14 -67 -18 -65 -23 -63 -28 -61 -31 -58 -35 -54 -38 -51 -41 -46 -44 -42 -47 -36 -49 -30 -52 -24 -54 -17 -56 -10 -59 -1 -62 128 -97 1 46 8 47 15 48 21 48 28 47 34 46 39 44 44 42 48 40 52 36 56 34 58 30 61 26 63 22 64 18 65 13 65 9 65 3 64 -2 62 -8 60 -13 57 -18 52 -24 48 -28 41 -32 35 -34 30 -38 29 -45 26 -56 25 -68 21 -80 15 -93 0 0 128 -86zm-1608 123l0 0 10 -98 21 -97 29 -95 39 -94 48 -92 55 -87 61 -81 66 -75 70 -68 72 -60 74 -54 76 -46 77 -39 77 -32 77 -25 77 -17 75 -10 74 -2 72 6 69 15 66 23 61 32 57 41 52 51 46 60 40 71 33 80 25 92 16 102 7 114 -2 125 -12 137 -128 86 12 -126 2 -116 -7 -104 -15 -94 -23 -84 -30 -75 -36 -65 -43 -55 -48 -47 -52 -37 -57 -30 -60 -21 -63 -13 -66 -6 -67 2 -68 9 -69 15 -68 22 -67 28 -66 33 -63 39 -59 42 -56 47 -51 49 -46 53 -41 55 -37 58 -33 62 -27 67 -23 72 -16 78 -9 82 0 0 -128 97z"/> </g> <g> <path class="fil6" d="M11790 7042c-24,404 941,762 1039,-23 129,-1029 -1000,-664 -1039,23z"/> <path id="1" class="fil5" d="M12861 6998l0 0 -12 74 -18 68 -23 65 -29 60 -35 55 -40 49 -42 42 -44 34 -45 27 -46 20 -46 16 -48 10 -48 6 -48 1 -48 -2 -48 -6 -48 -10 -46 -13 -46 -16 -44 -19 -43 -22 -40 -24 -38 -27 -36 -29 -32 -31 -29 -32 -25 -34 -21 -36 -16 -37 -12 -39 -7 -40 -1 -42 65 -49 0 34 6 34 11 35 15 34 20 34 24 32 27 32 31 29 35 28 36 26 40 24 41 21 43 18 45 16 45 13 46 9 46 6 46 3 45 -2 45 -5 43 -10 41 -13 38 -17 35 -21 32 -25 27 -27 25 -30 22 -36 21 -42 18 -51 15 -59 11 -66 0 0 64 -43zm-1104 68l0 0 8 -68 13 -66 21 -65 26 -63 31 -61 37 -58 41 -55 45 -50 47 -46 49 -41 51 -36 52 -32 52 -27 54 -22 53 -17 53 -12 52 -7 52 -1 49 4 48 10 46 16 43 22 39 29 36 35 32 42 28 49 23 56 17 64 11 71 5 79 -1 87 -9 95 -64 43 9 -90 1 -82 -5 -74 -11 -67 -16 -60 -21 -53 -26 -46 -30 -40 -34 -33 -38 -27 -40 -21 -43 -15 -45 -9 -47 -4 -48 1 -48 6 -49 11 -49 16 -48 20 -47 24 -46 28 -43 31 -41 34 -37 37 -35 39 -31 41 -28 44 -24 46 -21 50 -16 53 -12 57 -6 59 0 0 -65 49z"/> </g> <g> <path class="fil7" d="M11589 4061c86,-47 1078,-477 1106,-66 29,410 -219,620 -219,620 0,0 401,-38 458,276 103,570 -473,2650 -1024,2705 -286,28 -321,-3535 -321,-3535z"/> <path id="1" class="fil5" d="M12792 3911l-193 167 0 0 -4 -25 -8 -23 -12 -21 -16 -18 -21 -15 -24 -13 -28 -10 -32 -7 -35 -4 -38 -2 -40 1 -43 3 -44 5 -46 8 -46 9 -48 10 -47 12 -48 13 -47 14 -46 14 -45 15 -44 16 -42 15 -40 15 -37 14 -34 14 -31 13 -28 12 -23 10 -19 9 -13 6 -5 3 48 -219 15 -9 18 -8 22 -10 26 -12 30 -13 33 -13 36 -15 39 -16 42 -15 44 -16 46 -16 48 -16 49 -15 50 -15 51 -14 50 -13 51 -11 51 -10 49 -8 49 -5 48 -4 45 -1 44 2 42 5 39 9 36 13 32 16 29 22 25 27 19 34 13 39 8 47 0 0zm-259 582l-114 243 53 -211 -3 2 -1 1 1 -1 1 -1 2 -2 3 -3 3 -3 4 -5 5 -5 5 -6 5 -7 6 -8 6 -8 6 -10 6 -10 7 -11 7 -13 6 -13 7 -15 7 -16 7 -17 6 -19 7 -21 6 -22 5 -23 5 -26 4 -27 3 -28 2 -30 1 -32 0 -33 -2 -35 193 -167 2 41 0 40 -1 40 -3 38 -4 38 -6 37 -6 36 -9 36 -9 35 -10 34 -12 33 -12 32 -14 31 -14 30 -14 29 -15 28 -16 27 -15 25 -16 23 -15 22 -15 21 -15 18 -14 17 -13 16 -12 14 -12 12 -10 10 -9 9 -8 8 -6 6 -5 4 -4 4 53 -212zm496 307l-191 182 0 0 -5 -24 -7 -22 -9 -22 -10 -19 -11 -19 -13 -17 -14 -16 -15 -14 -16 -13 -16 -12 -18 -11 -18 -9 -18 -9 -19 -8 -19 -6 -19 -6 -18 -5 -19 -4 -18 -3 -18 -3 -17 -2 -16 -1 -15 -1 -14 -1 -13 0 -11 0 -10 0 -9 0 -6 0 -5 1 -3 0 0 0 114 -243 2 0 4 0 6 0 8 -1 10 0 12 0 13 0 15 0 16 1 17 1 18 2 19 2 20 3 20 4 21 4 21 6 22 6 21 8 22 8 21 10 21 12 21 12 20 15 19 16 18 17 17 20 16 21 15 23 13 26 11 28 10 30 7 33 0 0zm-1176 2917l114 -242 0 0 38 -8 34 -15 33 -21 32 -27 34 -35 37 -43 39 -54 40 -63 42 -71 42 -80 43 -86 42 -92 41 -97 39 -101 39 -105 37 -107 35 -109 34 -111 31 -110 29 -111 27 -109 25 -108 21 -105 19 -102 16 -99 13 -94 10 -89 7 -82 3 -77 0 -69 -4 -61 -7 -52 191 -182 9 64 4 71 0 78 -4 84 -7 90 -10 96 -14 101 -17 104 -20 108 -23 111 -26 114 -28 115 -31 117 -33 117 -36 117 -38 116 -39 116 -42 113 -44 112 -46 108 -48 106 -50 102 -52 97 -55 94 -57 89 -61 84 -65 77 -68 69 -70 59 -71 45 -69 29 -65 14 0 0zm-240 -3765l-48 219 120 -188 0 10 1 30 0 47 1 65 1 81 2 95 2 107 3 120 3 130 4 139 4 146 5 154 6 158 6 162 7 165 8 165 9 166 10 164 10 162 12 157 12 152 14 145 14 137 16 128 16 116 18 105 19 91 20 75 20 59 20 39 17 19 2 3 -114 242 -50 -13 -33 -35 -27 -52 -23 -68 -22 -82 -19 -95 -19 -109 -17 -119 -16 -130 -15 -140 -13 -146 -13 -154 -11 -158 -11 -163 -10 -165 -8 -167 -8 -166 -8 -165 -6 -163 -6 -159 -5 -154 -4 -147 -4 -139 -3 -131 -3 -119 -2 -109 -1 -95 -2 -80 -1 -66 0 -48 -1 -30 0 -10 121 -188zm-121 188c0,-51 42,-128 96,-171 53,-44 97,-37 97,14l-193 157z"/> </g> <g> <path class="fil4" d="M9492 10200c0,0 762,1501 2651,1620 1888,119 3337,-1609 3132,-2164 -583,-211 -3178,320 -4988,-703 -369,-21 -795,1247 -795,1247z"/> <path id="1" class="fil5" d="M12078 11941l0 0 -175 -15 -169 -23 -163 -30 -156 -37 -149 -42 -143 -48 -137 -53 -131 -58 -124 -61 -119 -65 -112 -68 -107 -70 -100 -72 -95 -73 -89 -73 -84 -74 -78 -74 -72 -72 -67 -72 -62 -69 -56 -67 -51 -64 -46 -60 -41 -56 -36 -52 -30 -47 -26 -41 -22 -34 -16 -28 -12 -21 -7 -13 -2 -5 182 -209 2 4 6 12 11 20 16 27 21 34 25 39 30 46 35 50 40 55 45 60 50 62 55 66 61 68 66 70 71 71 76 73 82 72 88 73 93 71 99 71 105 69 110 66 116 64 123 60 128 57 134 52 141 47 146 42 153 36 159 29 165 22 172 15 0 0 -129 243zm0 0l129 -243c40,3 43,59 8,126 -36,67 -97,120 -137,117zm3272 -2404l18 19 17 66 6 73 -5 81 -16 88 -27 93 -37 98 -46 100 -55 103 -64 104 -71 105 -79 105 -85 104 -93 104 -99 102 -105 100 -111 99 -117 95 -122 92 -128 89 -133 84 -138 80 -142 74 -147 69 -152 63 -155 55 -160 49 -163 41 -166 32 -170 24 -173 15 -175 4 -179 -6 129 -243 173 6 171 -4 167 -14 163 -23 160 -31 156 -39 152 -47 147 -53 143 -59 138 -64 133 -70 127 -73 122 -78 116 -80 111 -83 104 -85 97 -86 91 -87 83 -86 77 -86 69 -85 62 -82 55 -80 46 -77 40 -73 32 -69 24 -66 18 -61 11 -58 3 -54 -4 -50 -12 -45 19 20 149 -239zm18 19l-186 200c-14,-39 16,-114 68,-169 51,-55 104,-69 118,-31zm-5017 -725l15 4 171 91 174 82 179 74 181 66 184 59 186 52 188 45 188 40 190 33 189 29 189 23 188 19 186 15 184 11 182 8 179 5 175 3 172 1 166 0 162 -2 156 -2 150 -3 144 -2 137 -2 129 -1 121 0 112 2 104 5 94 7 85 11 75 14 64 19 -149 239 -57 -17 -69 -13 -80 -10 -92 -7 -101 -5 -111 -2 -120 0 -128 1 -136 2 -144 2 -150 3 -156 2 -163 2 -167 0 -172 -1 -177 -3 -180 -5 -183 -8 -186 -11 -188 -15 -189 -20 -191 -23 -191 -29 -191 -34 -191 -39 -190 -46 -188 -53 -186 -59 -184 -67 -181 -75 -177 -84 -174 -92 15 4 128 -243zm15 4l-158 235c-30,-17 -20,-84 24,-149 43,-64 103,-103 134,-86zm-965 1469l3 -72 1 -4 4 -12 7 -18 8 -24 11 -30 13 -35 15 -39 17 -44 18 -48 21 -52 22 -54 24 -56 25 -59 27 -60 28 -62 30 -62 31 -63 33 -63 34 -63 35 -62 37 -61 38 -59 41 -59 42 -56 45 -53 47 -51 50 -45 50 -39 51 -32 50 -21 48 -12 44 -3 -128 243 -25 1 -22 6 -20 9 -20 12 -20 15 -21 20 -22 24 -25 29 -26 35 -27 39 -28 43 -28 47 -28 50 -29 51 -27 54 -27 55 -27 55 -25 56 -25 55 -23 53 -22 53 -21 50 -19 47 -17 45 -16 41 -14 37 -11 33 -10 27 -8 22 -6 16 -3 10 -1 3 3 -72 -182 209zm3 -72l176 -65c-22,64 -79,131 -128,150 -48,18 -70,-20 -48,-85z"/> </g> <g> <path class="fil8" d="M9579 10178c0,0 309,608 1021,1081l992 -1868c-423,-99 -838,-245 -1218,-460 -369,-21 -795,1247 -795,1247z"/> <path id="1" class="fil5" d="M10552 11256l96 6 -102 75 -66 -45 -63 -46 -62 -46 -59 -47 -56 -46 -55 -47 -52 -47 -49 -47 -48 -46 -45 -46 -43 -46 -41 -44 -39 -44 -37 -43 -34 -42 -33 -41 -30 -39 -28 -37 -27 -36 -24 -34 -22 -33 -20 -30 -18 -28 -16 -25 -15 -24 -12 -20 -10 -18 -9 -15 -6 -12 -5 -8 -3 -6 -1 -2 122 -139 0 2 3 5 4 8 7 12 8 14 10 17 12 20 14 23 16 25 18 28 19 29 22 32 24 34 26 35 28 37 30 39 32 40 34 41 36 43 38 43 41 44 42 45 45 45 47 46 50 47 51 46 54 46 56 46 58 46 61 46 62 45 66 45 -102 74zm102 -74c19,13 11,58 -19,101 -29,42 -69,67 -89,54l108 -155zm986 -1788l-992 1868 -96 -6 992 -1868 95 -77 1 83zm-96 -6c24,-45 65,-80 91,-78 26,2 29,39 5,84l-96 -6zm-1213 -376l86 -162 10 3 35 20 36 19 36 19 36 19 36 18 37 18 37 17 36 18 37 16 38 17 37 16 37 16 38 15 38 15 38 14 38 15 38 14 38 13 38 14 39 13 39 12 38 13 39 12 39 11 39 12 39 11 39 11 40 10 39 11 39 9 40 10 39 10 -94 160 -40 -9 -40 -10 -39 -10 -40 -10 -39 -11 -40 -11 -39 -11 -40 -12 -39 -11 -39 -12 -39 -13 -39 -13 -39 -13 -39 -13 -38 -14 -39 -14 -38 -14 -38 -15 -38 -15 -38 -16 -38 -16 -38 -16 -37 -17 -38 -16 -37 -18 -37 -17 -37 -19 -37 -18 -36 -19 -36 -19 -36 -20 -36 -20 9 3zm-9 -3c-21,-11 -14,-56 15,-99 29,-43 69,-69 90,-57l-105 156zm-682 1099l-122 139 2 -47 2 -5 3 -11 7 -18 8 -23 11 -30 12 -34 15 -40 17 -43 18 -47 20 -51 22 -54 24 -55 25 -58 26 -60 28 -60 29 -62 31 -61 32 -61 33 -61 34 -60 35 -59 37 -57 38 -55 40 -52 41 -50 44 -46 44 -41 46 -35 45 -28 45 -20 44 -11 41 -2 -86 162 -28 1 -26 7 -26 11 -24 15 -25 20 -26 23 -27 29 -27 33 -29 38 -29 43 -30 46 -30 49 -29 52 -30 53 -28 56 -28 56 -27 56 -26 57 -25 55 -23 55 -23 53 -20 51 -20 48 -17 45 -16 42 -14 37 -12 33 -10 28 -8 22 -6 17 -3 10 -1 3 2 -48zm-2 48c-15,43 -53,88 -85,100 -33,12 -47,-13 -33,-56l118 -44z"/> </g> <path class="fil9 str0" d="M15187 10429c-36,138 -105,413 -261,410 -155,-2 -122,-322 73,-417 195,-95 188,7 188,7z"/> <path class="fil9 str0" d="M15369 10209c28,37 83,344 -40,448 -122,104 -306,89 -268,-115 37,-204 181,-422 233,-425 53,-4 75,92 75,92z"/> <path class="fil9 str0" d="M15396 9885c0,0 375,177 444,365 68,188 -58,425 -298,307 -240,-118 -285,-379 -265,-518 21,-138 119,-154 119,-154z"/> <path class="fil9 str0" d="M15335 9595c35,-41 449,-260 640,-118 191,141 -95,418 -274,445 -179,27 -358,-76 -407,-177 -49,-101 41,-150 41,-150z"/> <g> <path class="fil10" d="M11961 13559c0,184 -54,360 -154,522l0 0c-303,940 -514,2111 -641,2916 -127,804 -353,1425 -353,1425 0,0 -1948,240 -1990,71 -43,-170 885,-3501 885,-3501 -166,0 -327,-12 -482,-33l0 0c0,0 -1370,3388 -1603,3474 -234,86 -234,86 -234,86 0,0 -1471,98 -1729,-123 -258,-221 2062,-5757 2062,-5757 39,-134 82,-292 126,-476 135,-554 20,-1388 -64,-1855 -46,-110 -71,-227 -71,-348 0,-681 782,-1233 1747,-1233 575,0 1086,196 1404,500l0 0 0 0 6 6c52,49 98,102 139,157 191,238 529,740 761,1534 338,1161 191,2635 191,2635z"/> <path id="1" class="fil5" d="M11892 14056l-170 49 23 -45 7 -12 6 -11 7 -11 6 -12 6 -11 6 -12 5 -12 6 -11 5 -12 5 -13 5 -12 5 -12 5 -13 4 -12 4 -13 4 -14 4 -13 4 -13 3 -14 3 -13 3 -14 3 -14 3 -15 2 -14 2 -15 2 -14 1 -15 2 -15 1 -15 0 -15 1 -16 0 -15 193 -156 0 19 -1 19 -1 19 -1 19 -2 19 -2 19 -2 19 -3 20 -3 19 -3 19 -4 20 -4 19 -5 19 -4 20 -6 19 -5 20 -6 19 -7 20 -7 20 -7 19 -7 20 -8 20 -9 19 -8 20 -10 20 -9 19 -10 20 -10 19 -11 20 -11 19 -11 20 -12 19 23 -46zm-23 46c-40,66 -101,110 -135,98 -35,-11 -30,-74 11,-140l124 42zm-147 4l0 -1 170 -49 0 0 -174 60 4 -10zm-461 2830l-190 121 0 0 12 -77 13 -79 13 -80 14 -83 14 -84 14 -86 16 -88 15 -89 17 -90 16 -91 18 -93 17 -93 19 -94 19 -95 19 -96 20 -96 20 -97 21 -97 22 -97 22 -97 22 -98 23 -97 24 -97 24 -96 25 -97 25 -95 26 -96 26 -94 27 -94 27 -92 28 -92 29 -91 178 -71 -28 87 -27 89 -26 89 -26 91 -26 92 -25 92 -25 94 -24 94 -23 95 -23 95 -23 95 -22 96 -22 95 -21 96 -21 96 -20 95 -19 95 -19 94 -19 94 -18 93 -18 93 -17 91 -16 91 -16 89 -16 88 -15 87 -15 85 -14 84 -13 81 -14 81 -12 78 -12 76 0 0zm-504 1607l111 -242 -141 149 0 -1 2 -5 2 -8 4 -11 5 -15 7 -18 7 -21 8 -24 8 -27 10 -30 10 -33 11 -36 12 -38 12 -41 13 -43 13 -46 13 -48 14 -50 14 -53 14 -55 15 -56 14 -59 14 -60 15 -63 14 -64 14 -65 14 -67 14 -69 13 -70 13 -71 13 -72 12 -74 190 -121 -13 76 -13 75 -13 74 -14 72 -14 71 -14 70 -15 68 -15 66 -15 64 -15 63 -15 61 -15 59 -14 57 -15 54 -14 53 -14 50 -14 48 -13 45 -13 43 -12 40 -12 37 -11 35 -10 32 -9 29 -9 26 -7 23 -7 19 -6 17 -4 13 -4 9 -2 6 -1 3 -142 149zm-2029 44l189 -189 0 0 -1 -4 13 7 25 9 35 7 45 6 53 5 60 2 67 2 72 -1 78 -1 81 -3 85 -4 88 -5 90 -5 92 -7 92 -7 92 -7 91 -8 89 -8 87 -8 85 -9 81 -8 76 -8 71 -7 66 -7 59 -7 52 -6 44 -5 36 -4 26 -3 16 -2 5 -1 -111 242 -5 1 -17 2 -26 3 -36 4 -44 5 -52 6 -60 7 -66 7 -71 8 -77 8 -81 8 -85 8 -87 9 -90 8 -92 8 -92 7 -93 7 -92 7 -90 5 -89 5 -86 4 -83 3 -79 1 -74 1 -69 -2 -63 -3 -57 -4 -49 -7 -42 -9 -34 -12 -28 -17 -20 -34 0 0zm918 -3474l123 -243 30 79 -3 9 -8 28 -12 45 -17 61 -21 76 -24 89 -28 102 -31 112 -34 123 -36 132 -38 139 -39 146 -41 151 -41 155 -43 157 -42 160 -42 160 -42 159 -41 157 -40 154 -38 150 -36 144 -35 138 -31 129 -29 121 -25 110 -22 98 -17 85 -13 70 -9 53 -3 32 -1 4 -189 189 -3 -46 5 -52 10 -64 15 -76 18 -90 23 -101 25 -113 30 -122 31 -131 35 -139 37 -145 38 -151 40 -155 41 -158 42 -160 43 -160 42 -160 42 -159 42 -155 41 -151 40 -146 37 -140 36 -131 34 -123 31 -114 28 -101 25 -90 21 -76 17 -61 12 -45 8 -28 2 -9 30 78zm-30 -78c18,-63 73,-133 123,-157 51,-24 77,8 60,71l-183 86zm-293 -154l-193 156 164 -199 14 2 15 2 14 2 14 1 15 2 15 2 14 1 15 2 14 1 15 2 15 1 15 1 14 2 15 1 15 1 15 1 15 1 15 1 15 1 15 1 15 0 15 1 15 1 15 0 15 1 15 0 15 0 15 1 16 0 15 0 15 0 15 0 -123 243 -16 0 -15 0 -16 0 -16 0 -15 -1 -16 0 -15 0 -16 -1 -15 0 -16 -1 -15 -1 -15 -1 -16 0 -15 -1 -15 -1 -16 -1 -15 -1 -15 -1 -15 -2 -15 -1 -15 -1 -15 -2 -15 -1 -15 -2 -15 -1 -15 -2 -15 -2 -15 -1 -15 -2 -15 -2 -14 -2 -15 -2 164 -199zm-164 199c-38,-5 -39,-64 -2,-131 38,-67 99,-116 137,-111l-135 242zm-29 -43l0 0 193 -156 0 0 -13 58 -180 98zm-1547 3513l79 -234 0 0 -28 18 2 -3 23 -33 34 -56 43 -75 49 -90 53 -104 57 -115 61 -126 64 -135 65 -142 68 -148 69 -153 69 -157 70 -159 70 -160 69 -159 68 -159 66 -156 64 -152 62 -146 59 -141 55 -133 52 -124 47 -114 42 -103 38 -90 31 -77 25 -61 19 -46 11 -28 4 -10 167 -40 -4 10 -12 28 -19 46 -25 62 -32 77 -37 91 -42 104 -48 114 -52 125 -55 134 -60 141 -62 148 -64 152 -67 157 -69 160 -69 161 -70 161 -71 161 -70 159 -70 155 -69 151 -67 145 -66 138 -63 131 -60 122 -58 112 -54 101 -52 91 -50 80 -51 72 -61 69 -78 53 0 0zm-252 90l117 -243 -59 122 43 -118 -4 1 1 0 0 0 1 -1 1 0 1 0 1 -1 1 0 2 -1 3 -1 2 -1 4 -1 4 -2 4 -1 5 -2 6 -2 7 -3 7 -2 8 -3 9 -4 10 -3 11 -4 12 -5 12 -4 14 -5 15 -6 16 -6 18 -6 18 -7 20 -7 21 -8 -79 234 -21 8 -20 7 -19 7 -17 6 -16 6 -15 6 -14 5 -13 5 -12 4 -11 4 -9 4 -9 3 -8 3 -8 3 -6 2 -6 2 -5 2 -5 2 -4 1 -3 1 -3 1 -2 1 -2 1 -2 1 -1 0 -1 0 0 0 -1 1 0 0 1 -1 -4 2 42 -118 -58 121zm-1754 -130l166 -228 0 0 24 17 31 16 38 16 44 14 50 12 54 11 59 10 63 9 66 8 68 6 72 5 72 4 74 4 75 2 75 2 75 1 75 0 73 0 71 -1 69 -1 66 -2 63 -2 60 -2 55 -2 51 -2 45 -2 40 -2 34 -2 27 -1 20 -2 12 0 4 -1 -117 243 -4 0 -13 1 -20 1 -27 2 -34 2 -41 2 -45 2 -51 2 -56 2 -60 2 -64 2 -67 2 -69 1 -72 1 -74 0 -75 0 -76 -1 -76 -2 -75 -2 -76 -4 -74 -4 -72 -5 -70 -7 -68 -7 -65 -9 -61 -11 -57 -12 -53 -13 -48 -15 -43 -18 -37 -19 -31 -23 0 0zm2055 -5830l181 -82 -8 23 -7 16 -19 46 -31 75 -42 101 -52 125 -61 148 -69 169 -77 187 -83 203 -88 218 -94 231 -96 241 -100 250 -102 256 -102 261 -103 263 -102 264 -100 263 -97 259 -95 253 -89 246 -85 237 -78 225 -71 211 -63 196 -54 177 -44 158 -33 134 -22 109 -9 79 1 47 5 13 -166 228 -29 -58 -4 -84 12 -105 25 -127 37 -146 46 -167 56 -184 65 -202 73 -215 79 -229 86 -240 90 -248 95 -256 99 -261 100 -264 103 -266 103 -265 103 -262 102 -257 100 -251 97 -242 94 -231 89 -219 83 -204 77 -188 69 -169 61 -148 53 -126 42 -102 31 -75 19 -47 7 -16 -8 24zm8 -24c28,-66 87,-128 133,-137 45,-10 60,36 32,102l-165 35zm116 -444l185 -97 0 0 -4 17 -4 17 -5 18 -4 16 -4 17 -4 17 -4 16 -4 17 -5 16 -4 16 -4 16 -4 15 -4 16 -4 15 -4 16 -4 15 -4 15 -4 15 -4 14 -4 15 -4 14 -4 15 -4 14 -4 14 -3 14 -4 14 -4 13 -4 14 -4 13 -3 13 -4 13 -4 13 -181 82 4 -13 3 -12 4 -13 3 -13 4 -13 4 -13 3 -13 4 -13 4 -14 4 -14 3 -13 4 -14 4 -14 4 -15 4 -14 4 -14 4 -15 3 -15 4 -15 4 -15 4 -15 4 -16 4 -15 4 -16 4 -16 4 -16 4 -16 4 -16 4 -17 5 -16 4 -17 4 -17 0 0zm-65 -1802l185 -203 3 10 8 46 8 47 9 49 8 51 8 52 8 54 8 56 8 57 8 58 7 60 7 60 7 61 6 62 6 63 5 63 4 64 4 64 3 64 3 64 2 65 0 64 0 64 -1 63 -2 64 -3 62 -4 63 -6 61 -7 61 -8 60 -10 60 -11 58 -13 58 -185 97 10 -48 10 -50 9 -52 7 -54 6 -55 5 -57 4 -58 3 -59 2 -60 1 -60 0 -62 0 -62 -2 -62 -2 -62 -3 -62 -4 -63 -5 -62 -5 -61 -5 -62 -6 -61 -7 -60 -7 -59 -7 -58 -8 -58 -7 -56 -8 -55 -8 -53 -8 -52 -9 -50 -8 -49 -8 -46 -8 -45 3 11zm-3 -11c-8,-44 28,-121 81,-171 53,-50 102,-55 110,-11l-191 182zm-71 -361l193 -155 0 0 0 10 0 10 0 10 1 11 0 10 1 10 1 10 1 10 1 11 1 10 1 10 2 10 2 10 1 11 2 10 2 10 2 10 3 10 2 11 3 10 2 10 3 10 3 10 3 10 3 10 4 10 3 10 4 10 3 10 4 10 4 10 4 10 -185 203 -4 -11 -4 -11 -5 -11 -4 -11 -4 -11 -3 -11 -4 -11 -4 -11 -3 -11 -3 -12 -3 -11 -3 -11 -3 -12 -3 -11 -2 -12 -3 -11 -2 -12 -2 -12 -2 -11 -2 -12 -2 -12 -2 -12 -1 -12 -1 -12 -2 -12 -1 -12 0 -12 -1 -12 -1 -13 0 -12 0 -12 0 -13 0 0zm1904 -1433l-123 243 0 0 -88 2 -87 4 -86 8 -84 11 -82 13 -81 16 -78 19 -77 21 -74 24 -72 26 -70 28 -67 31 -64 32 -61 34 -58 35 -54 37 -51 37 -47 39 -43 39 -39 39 -36 38 -31 39 -28 39 -25 39 -23 40 -20 42 -18 44 -15 47 -12 49 -10 52 -5 54 -2 57 -193 155 2 -70 8 -71 13 -72 18 -72 24 -73 29 -73 35 -73 40 -72 45 -70 49 -67 53 -65 55 -61 58 -58 61 -55 63 -51 65 -48 66 -45 69 -42 71 -39 73 -37 75 -34 77 -31 78 -29 81 -25 82 -23 83 -20 85 -17 87 -14 88 -11 89 -8 91 -5 91 -2 0 0zm1404 500l-123 243 -23 -8 -30 -28 -30 -27 -32 -26 -33 -26 -34 -25 -35 -24 -36 -24 -37 -23 -38 -22 -39 -21 -40 -21 -41 -20 -41 -19 -42 -18 -43 -17 -44 -17 -45 -15 -45 -15 -46 -14 -47 -13 -47 -12 -48 -11 -48 -10 -50 -9 -49 -8 -50 -7 -51 -6 -51 -5 -52 -4 -52 -3 -52 -1 -53 -1 123 -243 55 1 54 1 54 3 54 4 52 5 53 7 51 7 52 8 50 9 50 11 50 11 48 13 49 13 47 14 47 15 46 16 45 17 44 18 44 19 42 20 42 20 41 21 40 23 40 22 38 24 37 25 36 25 36 26 34 26 33 28 32 28 31 28 -23 -8zm23 8c26,25 9,95 -38,158 -46,62 -105,93 -131,69l169 -227zm-146 235l0 0 123 -243 0 0 24 9 -147 234zm123 -243c41,0 47,54 13,122 -34,67 -95,121 -136,121l123 -243zm-146 235l0 -1 170 -225 0 0 -170 226 0 0zm170 -226c25,25 8,96 -39,159 -47,62 -106,92 -131,67l170 -226zm-164 232l-6 -6 170 -226 6 6 -170 226 0 0zm170 -226c25,25 8,95 -39,158 -47,62 -105,92 -131,68l170 -226zm141 160l-175 220 0 -1 -4 -5 -4 -5 -4 -5 -4 -5 -3 -5 -4 -5 -4 -5 -4 -5 -4 -5 -4 -4 -4 -5 -4 -5 -4 -5 -5 -5 -4 -5 -4 -4 -4 -5 -4 -5 -5 -5 -4 -4 -4 -5 -5 -5 -4 -5 -5 -4 -4 -5 -5 -5 -4 -4 -5 -5 -5 -5 -4 -4 -5 -5 -5 -4 170 -226 5 4 5 5 4 5 5 5 5 5 5 5 4 4 5 5 5 5 4 5 5 5 5 5 4 5 5 5 4 5 5 5 4 5 4 5 5 5 4 5 4 5 5 6 4 5 4 5 4 5 4 5 5 5 4 6 4 5 4 5 4 5 4 6 -1 -1zm1 1c21,29 0,102 -49,162 -49,61 -106,86 -127,56l176 -218zm767 1546l-188 194 0 0 -22 -73 -23 -72 -22 -69 -24 -68 -24 -66 -24 -65 -24 -63 -25 -61 -25 -60 -26 -58 -25 -56 -26 -54 -26 -53 -25 -52 -26 -50 -26 -48 -25 -46 -25 -45 -26 -43 -24 -42 -25 -40 -24 -39 -24 -37 -23 -35 -23 -34 -23 -32 -21 -30 -21 -29 -21 -28 -20 -26 -19 -24 -18 -23 175 -220 18 23 20 25 20 26 21 28 21 30 22 31 23 33 23 34 24 36 24 38 25 39 25 41 25 42 26 44 26 46 26 47 26 49 26 51 26 52 26 54 26 56 26 57 26 59 25 60 26 63 25 64 24 65 25 68 23 69 24 71 23 72 22 74 0 0zm194 2654l-193 156 0 -11 1 -3 1 -12 2 -20 2 -28 2 -35 3 -42 3 -48 4 -55 3 -61 3 -67 2 -71 2 -77 2 -82 1 -86 0 -90 0 -94 -2 -97 -2 -100 -4 -103 -5 -105 -7 -107 -8 -109 -10 -111 -12 -111 -13 -112 -16 -113 -17 -113 -20 -112 -22 -112 -25 -111 -27 -110 -30 -108 188 -194 30 111 28 113 26 114 22 114 21 115 18 115 15 115 14 115 12 113 10 113 8 111 7 109 6 107 3 105 3 102 2 99 0 95 0 92 -1 88 -2 83 -2 78 -3 74 -3 68 -3 62 -3 56 -3 50 -3 43 -3 36 -2 29 -2 21 -1 13 -1 5 1 -10zm-1 10c-5,56 -53,131 -106,169 -53,37 -91,22 -86,-34l192 -135z"/> </g> <g> <path class="fil11" d="M11202 16768c-109,636 -167,1042 -389,1654 0,0 -1948,240 -1990,71 -17,-69 123,-649 296,-1318l2083 -407z"/> <path id="1" class="fil5" d="M10776 18503l74 -162 -95 100 20 -56 19 -54 19 -54 17 -52 16 -52 16 -51 15 -50 15 -49 13 -49 14 -49 12 -48 12 -48 12 -47 11 -48 11 -48 11 -47 10 -48 10 -48 9 -48 10 -48 9 -49 9 -50 10 -50 9 -51 9 -51 9 -53 9 -53 9 -54 9 -56 10 -56 10 -58 10 -59 126 -78 -10 58 -10 58 -9 57 -10 55 -9 55 -9 53 -9 53 -9 52 -9 51 -10 51 -9 50 -9 50 -10 50 -10 49 -10 49 -11 49 -10 49 -12 49 -11 50 -12 49 -13 50 -13 50 -14 50 -14 51 -15 52 -16 52 -17 53 -17 54 -18 55 -19 56 -20 57 -21 57 -94 100zm-2016 53l126 -126 0 0 2 2 15 9 27 9 36 8 46 6 53 4 61 3 67 1 73 0 77 -2 82 -2 86 -4 88 -5 90 -6 91 -6 92 -7 92 -8 91 -7 90 -9 87 -8 85 -8 81 -8 76 -8 71 -8 66 -7 59 -7 52 -6 44 -5 36 -4 26 -3 16 -2 6 -1 -74 162 -6 0 -16 2 -27 4 -35 4 -44 5 -53 6 -59 7 -66 7 -71 7 -77 8 -81 9 -85 8 -87 8 -90 8 -92 8 -92 8 -92 7 -92 6 -91 6 -88 5 -87 4 -82 2 -79 2 -74 0 -68 -1 -63 -3 -56 -5 -48 -6 -41 -9 -33 -11 -25 -16 -16 -27 0 0zm393 -1461l-68 160 95 -111 -16 63 -16 61 -15 61 -16 61 -15 59 -15 59 -14 57 -14 57 -14 55 -13 54 -13 53 -13 51 -12 50 -11 49 -11 47 -10 45 -10 43 -10 41 -8 40 -8 37 -8 35 -6 33 -6 31 -5 28 -5 25 -4 23 -3 20 -2 17 -1 14 0 10 0 6 0 1 -126 126 -2 -15 -1 -16 1 -17 2 -20 2 -21 4 -23 4 -26 5 -28 5 -30 6 -32 7 -34 8 -36 8 -39 9 -40 9 -42 11 -44 10 -46 11 -47 12 -49 12 -51 12 -51 13 -54 14 -54 14 -56 14 -57 14 -58 15 -58 16 -60 15 -61 16 -61 16 -62 16 -63 95 -110zm-95 110c11,-41 47,-88 81,-105 33,-17 52,3 41,44l-122 61zm2110 -357l-2083 407 68 -160 2083 -408 29 42 -97 119zm68 -161c30,-5 39,26 21,70 -19,44 -59,85 -89,91l68 -161z"/> </g> <g> <path class="fil11" d="M8293 17161c-299,668 -577,1237 -670,1272 -234,86 -234,86 -234,86 0,0 -1558,24 -1729,-123 -171,-147 159,-859 460,-1701l2173 466z"/> <path id="1" class="fil5" d="M7596 18511l53 -156 0 0 -6 3 -4 3 0 0 4 -5 7 -9 10 -13 12 -17 13 -21 15 -23 16 -27 17 -29 18 -32 19 -35 20 -37 21 -39 21 -41 22 -43 23 -45 23 -46 24 -49 24 -50 25 -51 25 -53 26 -54 26 -56 26 -57 27 -58 27 -58 27 -60 27 -61 28 -61 28 -62 106 -16 -28 62 -28 62 -27 62 -28 60 -27 60 -27 58 -27 58 -27 57 -26 55 -26 54 -25 53 -25 51 -24 50 -25 48 -23 47 -23 45 -23 44 -22 41 -21 40 -21 38 -20 36 -20 34 -20 32 -19 31 -18 28 -19 27 -19 25 -19 24 -21 23 -22 22 -25 18 -25 13 0 0zm-247 89l81 -162 -41 81 29 -79 -3 1 1 0 0 0 1 -1 1 0 0 0 2 -1 1 0 2 -1 2 -1 3 -1 4 -1 3 -2 5 -1 5 -2 6 -2 6 -3 8 -2 8 -3 9 -4 10 -3 10 -4 12 -5 13 -4 14 -5 15 -6 16 -6 17 -6 19 -7 20 -7 21 -8 -53 156 -21 8 -20 7 -19 7 -17 6 -16 6 -15 6 -14 5 -13 5 -11 4 -11 4 -10 4 -9 3 -8 3 -8 3 -6 2 -6 2 -5 2 -4 2 -4 1 -4 1 -3 1 -2 1 -2 1 -1 0 -2 1 -1 0 0 0 0 1 -1 0 1 -1 -3 1 28 -78 -40 81zm-1745 -128l112 -152 0 0 16 11 25 11 33 11 40 10 47 9 51 9 57 8 62 7 65 7 68 6 72 5 73 4 76 4 76 4 77 3 77 2 77 3 75 1 74 2 72 1 69 0 66 1 62 0 58 0 54 0 48 0 42 0 35 -1 29 0 21 0 13 0 4 0 -81 162 -5 0 -13 0 -21 0 -29 0 -35 1 -42 0 -48 0 -54 0 -58 0 -62 0 -67 -1 -69 0 -72 -1 -74 -2 -76 -1 -77 -3 -77 -2 -78 -3 -77 -4 -75 -4 -74 -4 -72 -6 -70 -5 -66 -7 -62 -7 -58 -8 -53 -9 -48 -10 -43 -11 -36 -12 -30 -13 -24 -16 0 0zm563 -1858l-94 161 105 -100 -29 80 -28 78 -29 77 -28 76 -28 75 -28 74 -27 72 -27 71 -26 69 -25 68 -25 66 -23 65 -23 62 -21 60 -20 59 -19 56 -17 54 -16 52 -14 49 -13 46 -10 44 -9 41 -7 38 -5 36 -3 32 -1 29 1 27 4 23 5 21 7 17 10 15 12 13 -112 152 -17 -18 -14 -22 -11 -26 -7 -30 -5 -32 -1 -35 1 -38 3 -40 6 -43 8 -45 10 -47 12 -50 14 -51 16 -54 16 -55 19 -57 19 -59 21 -61 22 -62 23 -64 24 -66 25 -67 26 -68 26 -70 27 -71 27 -72 28 -74 28 -74 28 -75 28 -77 28 -77 28 -78 105 -100zm-105 100c16,-43 54,-87 86,-98 32,-10 45,16 30,59l-116 39zm2184 527l-2173 -466 94 -161 2173 466 6 73 -100 88zm94 -161c24,6 23,46 -3,90 -25,45 -66,77 -91,71l94 -161z"/> </g> <g> <path class="fil12" d="M11989 14248c-511,56 -4457,-101 -5009,-190l804 -3750c-46,-110 -71,-227 -71,-348 0,-681 782,-1233 1747,-1233 575,0 1086,196 1404,500l0 0 0 0 6 6c52,49 98,102 139,157 191,238 529,740 761,1534 269,750 361,3034 219,3324z"/> <path id="1" class="fil5" d="M6918 14094l125 -71 -17 -45 60 8 80 9 97 9 113 9 128 10 142 10 155 9 165 10 176 10 184 10 192 9 197 10 203 9 206 9 208 9 210 8 210 8 208 8 205 7 202 6 197 6 190 5 182 4 174 3 164 3 152 2 139 1 126 0 110 -1 94 -3 76 -3 56 -4 -75 161 -60 5 -77 3 -95 3 -111 1 -126 0 -140 -1 -153 -2 -163 -3 -174 -3 -183 -4 -190 -5 -197 -6 -202 -6 -206 -7 -208 -8 -210 -8 -209 -8 -209 -9 -206 -9 -203 -9 -198 -10 -191 -9 -185 -10 -175 -10 -166 -10 -155 -10 -142 -9 -129 -10 -113 -9 -98 -9 -81 -9 -62 -9 -17 -45zm17 45c-25,-4 -25,-43 0,-88 25,-44 66,-77 91,-73l-91 161zm911 -3866l-803 3750 -125 71 803 -3750 124 -103 1 32zm-125 71c9,-41 44,-89 78,-109 35,-19 56,-2 47,38l-125 71zm-72 -332l128 -103 0 0 1 10 0 11 0 10 1 11 0 10 1 11 1 11 1 10 1 11 1 10 2 11 1 10 2 11 2 10 2 10 2 11 2 10 2 11 3 10 2 10 3 11 3 10 3 10 3 11 3 10 3 10 4 10 4 10 3 11 4 10 4 10 4 10 -123 135 -4 -11 -5 -10 -4 -11 -4 -11 -3 -11 -4 -11 -4 -11 -3 -11 -4 -11 -3 -11 -3 -11 -3 -11 -3 -11 -2 -11 -3 -12 -2 -11 -2 -11 -3 -12 -2 -11 -1 -12 -2 -11 -2 -12 -1 -12 -1 -11 -1 -12 -1 -12 -1 -12 -1 -12 0 -12 -1 -12 0 -12 0 -12 0 0zm1852 -1366l-82 162 0 0 -89 1 -88 5 -86 8 -85 10 -83 14 -81 16 -79 19 -78 22 -75 24 -74 26 -70 29 -69 31 -65 33 -63 35 -59 36 -57 38 -53 40 -50 40 -46 42 -42 42 -39 42 -35 43 -31 44 -29 44 -25 46 -23 47 -19 48 -17 51 -13 54 -10 55 -6 57 -3 59 -128 103 2 -68 8 -68 12 -68 17 -69 23 -68 27 -68 32 -68 38 -67 41 -65 46 -63 49 -60 52 -57 55 -55 58 -52 60 -49 62 -46 65 -44 67 -41 69 -38 72 -36 73 -34 76 -30 77 -28 80 -26 81 -22 83 -20 84 -17 86 -14 87 -11 89 -8 90 -5 91 -1 0 0zm1404 500l-82 162 -16 -6 -30 -28 -31 -27 -32 -26 -33 -26 -34 -25 -35 -25 -37 -24 -37 -23 -38 -22 -39 -21 -40 -21 -41 -20 -42 -19 -42 -19 -43 -17 -44 -17 -45 -15 -46 -15 -46 -14 -47 -13 -47 -12 -49 -11 -48 -10 -50 -9 -50 -8 -50 -7 -51 -6 -51 -5 -52 -4 -53 -3 -52 -2 -53 0 82 -162 54 0 54 2 54 3 53 4 52 5 52 6 52 7 51 8 50 10 50 10 49 11 49 13 47 13 48 14 46 15 46 16 45 17 44 18 43 19 43 19 41 21 41 21 40 22 39 22 38 24 37 24 36 25 35 26 34 27 33 27 32 28 31 28 -15 -5zm15 5c17,16 6,63 -25,105 -31,42 -70,62 -88,46l113 -151zm-97 157l0 0 82 -162 0 0 15 5 -97 157zm82 -162c27,0 31,36 8,81 -23,44 -63,81 -90,81l82 -162zm-98 156l0 0 113 -151 1 1 -113 150 -1 0zm114 -150c17,17 5,64 -26,105 -32,42 -71,62 -88,45l114 -150zm-107 156l-6 -6 113 -150 6 5 -113 151 0 0zm113 -151c17,17 5,64 -26,106 -31,41 -71,62 -87,45l113 -151zm140 159l-117 147 0 0 -4 -5 -4 -5 -4 -5 -3 -5 -4 -5 -4 -5 -4 -5 -4 -5 -4 -5 -4 -5 -4 -5 -4 -5 -5 -5 -4 -5 -4 -5 -4 -5 -4 -4 -5 -5 -4 -5 -4 -5 -5 -4 -4 -5 -5 -5 -4 -5 -5 -4 -4 -5 -5 -5 -5 -4 -4 -5 -5 -5 -5 -4 -4 -5 112 -151 5 5 5 5 5 5 5 4 5 5 4 5 5 5 5 5 4 5 5 5 4 4 5 5 5 5 4 5 4 5 5 5 4 5 5 5 4 5 4 5 5 5 4 5 4 6 4 5 4 5 4 5 4 5 4 5 4 5 4 6 4 5 4 5 0 -1zm0 1c15,20 0,68 -32,108 -33,41 -71,57 -85,38l117 -146zm765 1541l-124 132 -1 -2 -22 -73 -22 -71 -23 -70 -24 -68 -24 -67 -24 -64 -25 -63 -25 -62 -25 -60 -25 -58 -26 -56 -25 -55 -26 -53 -26 -52 -26 -49 -25 -49 -26 -46 -25 -45 -26 -44 -25 -42 -24 -40 -24 -38 -24 -37 -24 -36 -23 -34 -22 -32 -22 -31 -21 -29 -21 -27 -19 -26 -19 -25 -19 -23 117 -147 18 24 19 24 21 27 20 28 22 29 22 31 23 33 23 34 23 36 25 38 24 39 25 40 25 43 26 44 26 45 25 47 26 49 26 51 27 52 26 53 26 56 25 57 26 59 26 60 25 62 25 64 24 65 25 68 23 69 24 70 22 73 22 74 0 -2zm0 2c8,27 -13,78 -48,113 -35,36 -69,42 -77,15l125 -128zm120 3469l75 -161 -89 83 4 -11 9 -33 9 -49 8 -61 7 -71 5 -80 5 -88 3 -96 2 -102 1 -108 0 -114 -2 -118 -3 -122 -4 -126 -6 -128 -7 -130 -7 -132 -10 -132 -10 -132 -11 -132 -13 -131 -13 -128 -15 -126 -16 -123 -17 -119 -19 -114 -19 -110 -20 -103 -21 -97 -23 -90 -23 -81 -24 -74 124 -132 25 76 24 84 23 92 22 99 20 105 20 110 18 116 17 120 17 124 15 127 13 130 13 131 12 133 10 133 9 133 8 133 7 131 5 129 4 127 3 123 2 119 1 115 -1 110 -2 104 -4 98 -4 90 -6 84 -8 75 -9 68 -11 59 -14 55 -21 55 -88 83zm88 -83c-22,45 -62,82 -90,83 -28,2 -33,-33 -12,-78l102 -5z"/> </g> <g> <path class="fil8" d="M9007 8768c145,-27 296,-41 453,-41 168,0 331,17 486,48 340,97 576,284 569,477 -10,253 -432,422 -944,377 -511,-44 -917,-286 -908,-539 6,-141 139,-255 344,-322z"/> <path id="1" class="fil5" d="M9480 8686l-41 81 0 0 -14 0 -15 0 -15 0 -14 1 -14 0 -15 1 -14 0 -15 1 -14 1 -14 0 -14 1 -15 1 -14 1 -14 1 -14 1 -14 2 -14 1 -14 2 -14 1 -14 2 -14 1 -14 2 -14 2 -13 2 -14 2 -14 2 -13 2 -14 2 -14 2 -13 3 -14 2 -13 3 35 -81 13 -2 14 -3 14 -2 13 -2 14 -3 14 -2 14 -2 14 -2 14 -2 14 -2 14 -1 14 -2 14 -2 15 -1 14 -2 14 -1 14 -1 15 -2 14 -1 14 -1 15 -1 14 -1 15 0 14 -1 15 -1 14 0 15 -1 14 0 15 -1 15 0 15 0 14 0 0 0zm490 49l-49 80 1 0 -14 -3 -15 -2 -14 -3 -15 -3 -14 -2 -15 -3 -15 -2 -14 -2 -15 -3 -15 -2 -15 -2 -15 -2 -15 -2 -15 -1 -15 -2 -15 -2 -15 -1 -15 -1 -16 -2 -15 -1 -15 -1 -15 -1 -16 -1 -15 -1 -16 0 -15 -1 -16 -1 -15 0 -16 0 -16 -1 -15 0 -16 0 41 -81 16 0 16 0 16 1 16 0 15 0 16 1 16 1 15 0 16 1 15 1 16 1 15 1 16 1 15 2 16 1 15 2 15 1 15 2 16 2 15 1 15 2 15 2 15 3 15 2 15 2 15 3 14 2 15 3 15 2 15 3 14 3 15 3 1 0zm-1 0c12,2 12,22 -1,45 -13,22 -33,38 -46,35l47 -80zm578 493l-64 49 0 0 0 -16 -2 -16 -2 -16 -4 -17 -5 -17 -6 -16 -8 -17 -9 -17 -10 -17 -12 -16 -12 -17 -14 -16 -15 -16 -16 -16 -17 -16 -18 -15 -19 -16 -20 -14 -21 -15 -22 -14 -23 -14 -24 -14 -25 -13 -26 -13 -26 -13 -27 -12 -28 -12 -29 -11 -29 -11 -30 -10 -31 -10 -32 -9 49 -80 31 9 32 10 30 11 30 11 29 11 28 12 28 12 27 13 26 13 25 14 24 13 24 15 22 14 22 15 21 16 19 15 19 16 18 16 16 17 16 17 14 17 13 17 12 18 11 18 10 18 8 18 7 19 6 18 4 20 3 19 2 20 0 21 0 0zm-997 442l43 -81 0 0 48 3 46 3 46 1 46 0 44 -1 44 -3 43 -3 42 -5 41 -5 39 -7 39 -7 37 -9 36 -9 35 -10 33 -11 32 -12 30 -13 28 -13 26 -14 25 -15 22 -15 20 -15 18 -14 15 -15 13 -14 10 -14 8 -13 8 -13 6 -15 5 -16 3 -18 2 -20 64 -49 -2 27 -6 28 -9 28 -11 29 -16 29 -18 28 -20 27 -22 25 -24 22 -25 21 -26 20 -27 18 -28 17 -30 16 -32 14 -32 14 -34 13 -35 12 -36 11 -38 9 -39 9 -40 8 -40 7 -42 5 -43 5 -44 3 -45 3 -45 1 -46 0 -47 -1 -47 -3 -48 -3 0 0zm-919 -555l64 -49 0 0 1 20 2 22 5 21 7 22 9 22 11 22 13 22 15 21 18 22 19 21 21 21 23 20 25 20 27 20 28 18 29 19 32 18 32 17 35 16 35 16 37 15 38 15 39 13 41 13 41 12 43 10 43 10 44 9 45 8 46 7 47 6 47 5 -43 81 -48 -5 -48 -6 -46 -7 -46 -8 -45 -9 -44 -10 -43 -11 -42 -12 -41 -13 -39 -14 -39 -14 -37 -16 -37 -16 -34 -16 -34 -18 -31 -18 -31 -19 -29 -19 -27 -20 -25 -21 -24 -21 -22 -21 -20 -22 -18 -23 -16 -22 -14 -24 -13 -23 -10 -25 -7 -24 -6 -25 -3 -26 0 -27 0 0zm394 -387l-35 81 3 -1 -19 6 -18 7 -17 6 -17 7 -17 7 -16 8 -15 7 -15 8 -14 8 -14 8 -13 8 -12 8 -12 9 -11 8 -10 8 -9 9 -9 8 -8 8 -7 7 -6 8 -6 8 -5 7 -4 7 -4 8 -4 8 -4 8 -3 8 -2 9 -3 10 -2 10 -1 11 -1 11 -64 49 1 -15 2 -15 3 -16 4 -16 5 -16 5 -16 7 -16 8 -16 9 -16 10 -16 10 -15 12 -15 11 -14 13 -14 13 -13 13 -13 13 -12 14 -11 15 -11 14 -11 15 -10 16 -9 16 -10 16 -9 17 -9 17 -8 18 -8 18 -8 18 -7 19 -8 19 -6 20 -7 3 -1zm-3 1c16,-5 22,8 14,30 -8,22 -27,44 -43,49l29 -79z"/> </g> <g> <path class="fil13" d="M6932 17119c718,0 1300,550 1300,1230 0,91 -10,180 -30,265l-2540 0c-20,-85 -30,-174 -30,-265 0,-680 582,-1230 1300,-1230z"/> <path id="1" class="fil5" d="M8297 18297l-129 103 0 0 -2 -60 -4 -60 -8 -59 -11 -58 -14 -58 -17 -57 -20 -55 -23 -55 -26 -53 -28 -52 -30 -50 -34 -49 -35 -48 -38 -45 -40 -44 -43 -42 -44 -40 -47 -39 -48 -36 -50 -33 -52 -32 -54 -29 -55 -27 -57 -24 -58 -22 -59 -19 -61 -16 -62 -13 -63 -11 -64 -8 -64 -4 -66 -2 82 -162 69 2 67 4 66 8 65 11 64 14 63 17 61 20 60 22 59 25 57 28 55 30 54 32 51 35 50 37 48 39 46 42 44 43 41 45 39 48 37 49 35 50 32 53 29 54 27 56 23 57 21 59 18 60 15 61 12 63 9 63 5 66 2 66 0 0zm-136 399l82 -163 -103 115 2 -8 1 -7 2 -7 1 -8 2 -7 1 -8 2 -7 1 -8 1 -7 1 -8 2 -7 1 -8 1 -8 1 -7 1 -8 1 -8 1 -7 0 -8 1 -8 1 -8 1 -8 0 -8 1 -8 0 -7 1 -8 0 -8 0 -8 1 -8 0 -9 0 -8 0 -8 0 -8 129 -103 0 9 0 9 -1 9 0 9 0 9 0 9 -1 9 0 9 -1 9 0 9 -1 8 -1 9 -1 9 -1 9 -1 9 -1 9 -1 9 -1 9 -1 9 -1 9 -1 8 -2 9 -1 9 -2 9 -1 9 -2 9 -2 8 -1 9 -2 9 -2 9 -2 9 -2 8 -103 115zm103 -115c-10,41 -45,89 -79,107 -35,19 -55,0 -45,-40l124 -67zm-2561 -48l2540 0 -82 163 -2540 0 -22 -19 104 -144zm-82 163c-27,0 -31,-37 -8,-82 23,-44 63,-81 90,-81l-82 163zm-53 -296l128 -103 0 0 0 8 0 8 0 8 1 8 0 8 0 8 1 9 0 8 1 8 0 8 1 8 0 8 1 8 1 8 1 8 1 8 1 8 1 8 1 8 1 8 1 8 1 8 2 7 1 8 1 8 2 8 1 8 2 8 1 8 2 7 2 8 2 8 -127 125 -2 -8 -2 -9 -1 -8 -2 -8 -2 -9 -1 -8 -2 -9 -1 -8 -2 -9 -1 -8 -2 -9 -1 -8 -1 -9 -1 -8 -1 -9 -1 -9 -1 -8 -1 -9 -1 -9 -1 -8 -1 -9 0 -9 -1 -9 0 -8 -1 -9 0 -9 -1 -9 0 -9 0 -9 0 -9 0 -9 0 -9 0 0zm1405 -1362l-82 162 0 0 -65 2 -65 4 -63 8 -62 10 -61 14 -59 16 -58 18 -57 21 -54 23 -53 26 -51 28 -49 29 -46 31 -44 33 -42 35 -40 35 -37 37 -35 38 -32 39 -30 40 -28 42 -26 42 -25 45 -22 46 -20 48 -18 50 -15 52 -13 54 -11 55 -7 58 -5 58 -2 60 -128 103 1 -66 6 -67 9 -66 12 -66 16 -65 19 -64 23 -65 27 -63 30 -63 33 -62 37 -60 39 -58 43 -56 44 -54 47 -52 49 -48 51 -46 53 -43 54 -40 55 -37 57 -35 58 -31 59 -29 61 -26 61 -23 63 -20 64 -17 65 -14 66 -12 67 -8 68 -4 68 -2 0 0z"/> </g> <g> <path class="fil14" d="M6932 17119c190,0 371,39 533,108 -10,3 -21,5 -33,5l-1000 0c-11,0 -23,-2 -33,-5 163,-69 343,-108 533,-108z"/> <path id="1" class="fil5" d="M7451 17266l29 -79 -40 79 -15 -6 -15 -6 -16 -6 -15 -6 -16 -6 -15 -5 -16 -5 -16 -5 -16 -5 -16 -5 -16 -4 -16 -5 -17 -4 -16 -4 -17 -3 -16 -4 -17 -3 -17 -3 -16 -3 -17 -3 -17 -2 -17 -3 -17 -2 -17 -1 -17 -2 -18 -2 -17 -1 -17 -1 -18 -1 -17 0 -18 0 -17 -1 41 -81 18 1 18 0 17 0 18 1 18 1 18 2 17 1 18 2 17 2 18 2 17 2 17 2 17 3 17 3 17 3 17 4 17 3 17 4 17 4 16 4 17 5 16 4 16 5 16 5 17 5 16 5 16 6 15 5 16 6 16 6 15 7 16 6 -40 79zm40 -79c11,5 8,26 -6,48 -14,22 -34,36 -45,31l51 -79zm-79 85l41 -81 0 0 1 0 1 0 1 0 1 0 0 0 1 0 1 0 1 0 1 0 1 0 1 0 1 0 1 0 0 0 1 -1 1 0 1 0 1 0 1 0 1 0 0 0 1 -1 1 0 1 0 1 0 0 0 1 -1 1 0 1 0 1 0 0 0 1 -1 -29 79 -1 1 -2 0 -1 0 -1 1 -1 0 -2 0 -1 1 -1 0 -1 0 -1 1 -2 0 -1 0 -1 0 -1 0 -2 1 -1 0 -1 0 -1 0 -1 0 -2 1 -1 0 -1 0 -1 0 -2 0 -1 0 -1 0 -1 0 -1 0 -2 0 -1 0 -1 0 -1 0 0 0zm-959 -81l1000 0 -41 81 -1000 0 0 0 41 -81zm-42 -3l-24 77 36 -78 1 0 1 0 1 1 1 0 1 0 1 0 1 1 0 0 1 0 1 0 1 0 1 1 1 0 1 0 1 0 1 0 1 0 1 0 1 1 0 0 1 0 1 0 1 0 1 0 1 0 1 0 1 0 1 0 1 0 1 0 1 0 1 0 -41 81 -2 0 -1 0 -1 0 -1 0 -2 0 -1 0 -1 0 -1 0 -1 0 -2 0 -1 0 -1 0 -1 -1 -1 0 -1 0 -2 0 -1 0 -1 0 -1 -1 -1 0 -1 0 -1 0 -1 -1 -2 0 -1 0 -1 0 -1 -1 -1 0 -1 0 -1 -1 -1 0 -1 0 36 -79zm-36 79c-12,-4 -11,-25 3,-47 13,-22 34,-37 45,-33l-48 80zm578 -189l-41 81 0 0 -18 1 -18 0 -17 0 -17 1 -18 1 -17 1 -17 2 -17 1 -17 2 -17 2 -17 3 -17 2 -17 3 -17 3 -16 3 -17 3 -16 3 -16 4 -17 4 -16 4 -16 4 -16 5 -16 4 -15 5 -16 5 -16 5 -15 6 -16 5 -15 6 -15 6 -15 6 -15 6 24 -77 15 -6 16 -7 16 -6 16 -6 16 -6 16 -5 16 -6 17 -5 16 -5 17 -5 16 -4 17 -5 17 -4 16 -4 17 -4 17 -3 17 -4 17 -3 18 -3 17 -2 17 -3 18 -2 17 -2 17 -2 18 -2 18 -1 17 -2 18 -1 18 -1 18 0 18 0 18 -1 0 0z"/> </g> <g> <path class="fil14" d="M8225 18216c5,44 7,88 7,133 0,91 -10,180 -30,265l-2540 0c-20,-85 -30,-174 -30,-265 0,-55 4,-108 11,-161 327,-116 768,-188 1254,-188 523,0 995,83 1328,216z"/> <path id="1" class="fil5" d="M8265 18323l-65 51 0 0 0 -4 0 -4 0 -4 0 -4 0 -4 0 -4 0 -4 0 -4 0 -4 0 -4 -1 -4 0 -4 0 -4 0 -5 0 -4 -1 -4 0 -4 0 -4 0 -4 -1 -4 0 -4 0 -4 -1 -4 0 -4 0 -4 -1 -4 0 -4 0 -4 -1 -4 0 -4 -1 -4 0 -4 64 -58 0 4 1 4 0 5 1 4 0 4 0 4 1 4 0 5 1 4 0 4 0 4 1 4 0 5 0 4 0 4 1 4 0 5 0 4 0 4 0 4 1 5 0 4 0 4 0 4 0 5 0 4 0 4 0 4 1 5 0 4 0 4 0 5 0 0zm-84 332l41 -81 -51 57 2 -8 1 -7 2 -8 2 -8 1 -7 2 -8 1 -8 2 -8 1 -8 1 -8 1 -8 2 -8 1 -7 1 -8 1 -8 1 -8 1 -9 0 -8 1 -8 1 -8 1 -8 0 -8 1 -8 0 -8 1 -9 0 -8 1 -8 0 -8 0 -9 0 -8 0 -8 0 -9 65 -51 0 8 -1 9 0 9 0 9 0 8 -1 9 0 9 0 9 -1 8 -1 9 0 9 -1 8 -1 9 -1 9 0 8 -1 9 -1 8 -2 9 -1 9 -1 8 -1 9 -2 8 -1 9 -1 8 -2 9 -1 8 -2 9 -2 8 -2 9 -1 8 -2 8 -2 9 -52 57zm52 -57c-5,20 -23,44 -40,53 -17,10 -27,0 -22,-20l62 -33zm-2550 -24l2539 0 -41 81 -2539 0 -11 -9 52 -72zm-41 81c-14,0 -16,-18 -4,-41 11,-22 31,-40 45,-40l-41 81zm-42 -281l64 -51 0 0 0 8 0 8 0 9 1 8 0 8 0 9 1 8 0 8 0 8 1 9 1 8 0 8 1 8 1 8 1 9 1 8 1 8 1 8 1 8 1 8 1 8 1 8 2 8 1 8 1 8 2 8 2 8 1 8 2 8 1 8 2 8 2 8 -63 63 -2 -8 -2 -9 -2 -8 -1 -8 -2 -8 -2 -9 -1 -8 -2 -8 -1 -9 -1 -8 -2 -8 -1 -9 -1 -8 -1 -8 -1 -9 -1 -8 -1 -9 -1 -8 -1 -9 -1 -8 0 -9 -1 -9 -1 -8 0 -9 -1 -9 0 -8 0 -9 -1 -9 0 -8 0 -9 0 -9 0 -9 0 0zm56 -225l-27 78 46 -60 -1 5 -1 5 0 4 -1 5 0 5 -1 5 0 4 -1 5 0 5 -1 5 0 5 -1 5 0 4 -1 5 0 5 0 5 -1 5 0 5 0 5 0 4 -1 5 0 5 0 5 0 5 0 5 -1 5 0 5 0 5 0 5 0 5 0 5 0 5 -64 51 0 -5 0 -5 0 -5 0 -5 0 -6 0 -5 0 -5 0 -5 1 -5 0 -6 0 -5 0 -5 1 -5 0 -5 0 -6 1 -5 0 -5 0 -5 1 -5 0 -5 1 -6 0 -5 1 -5 0 -5 1 -5 0 -5 1 -5 0 -5 1 -6 1 -5 0 -5 1 -5 45 -60zm-45 60c3,-19 19,-44 37,-56 17,-11 29,-5 27,14l-64 42zm1306 -249l-41 81 0 0 -45 0 -45 1 -45 1 -44 1 -44 2 -44 2 -43 3 -43 3 -43 3 -42 4 -42 4 -42 4 -41 5 -41 5 -40 6 -40 6 -39 6 -39 7 -38 6 -38 8 -37 7 -37 8 -36 8 -36 9 -35 8 -34 9 -34 10 -33 9 -33 10 -32 10 -31 11 -31 10 27 -78 32 -11 32 -11 33 -10 33 -10 34 -10 34 -9 35 -9 36 -9 36 -9 37 -8 37 -8 38 -8 38 -7 39 -7 39 -6 39 -7 41 -6 40 -5 41 -5 42 -5 42 -5 42 -4 42 -4 43 -3 44 -3 43 -3 45 -2 44 -2 45 -1 45 -1 45 -1 45 0 0 0zm1340 227l-64 58 7 11 -32 -12 -32 -12 -33 -12 -34 -11 -34 -11 -36 -11 -36 -11 -36 -10 -38 -9 -38 -10 -39 -9 -39 -8 -40 -9 -41 -8 -41 -7 -42 -7 -42 -7 -43 -6 -43 -6 -44 -6 -45 -5 -44 -5 -46 -4 -46 -4 -46 -4 -46 -3 -47 -2 -48 -2 -48 -2 -48 -1 -48 -1 -49 0 41 -81 49 0 49 1 48 1 49 2 47 2 47 2 47 3 47 4 46 4 46 4 45 5 44 5 45 6 43 6 43 6 43 7 42 7 41 8 41 8 41 8 39 9 39 9 39 9 37 10 37 10 37 11 35 11 35 11 34 11 34 12 32 12 32 12 7 11zm-7 -11c11,5 9,26 -5,48 -14,22 -34,36 -45,32l50 -80z"/> </g> <g> <path class="fil4" d="M8527 12627c0,0 384,159 471,321 87,162 -164,303 -341,243 -176,-60 -130,-564 -130,-564z"/> <path id="1" class="fil5" d="M9059 12878l-121 140 0 0 -8 -14 -10 -13 -11 -14 -13 -15 -14 -14 -15 -14 -17 -14 -17 -14 -18 -13 -19 -14 -19 -13 -19 -13 -20 -13 -20 -12 -20 -11 -20 -12 -20 -11 -19 -10 -19 -10 -18 -9 -18 -9 -17 -8 -15 -8 -15 -6 -13 -7 -12 -5 -10 -5 -9 -3 -7 -4 -5 -2 -3 -1 -1 0 100 -159 2 0 3 2 5 2 8 3 8 4 11 5 12 5 14 7 14 7 16 7 17 8 18 9 19 10 19 10 20 10 20 12 20 11 21 12 20 13 21 13 20 13 20 14 19 14 19 14 18 14 18 15 16 16 15 15 14 16 13 16 12 16 10 17 0 0zm-451 393l99 -159 0 0 15 4 16 4 15 2 16 2 16 1 17 -1 15 -1 16 -2 16 -3 15 -3 14 -5 14 -4 13 -6 12 -5 11 -6 9 -6 8 -5 5 -5 4 -3 2 -2 -1 1 -1 2 -2 3 -1 3 0 0 0 -2 1 -5 0 -8 -1 -9 -3 -11 -4 -11 -6 -13 121 -140 8 18 7 18 4 18 2 20 0 22 -2 23 -6 25 -10 27 -13 28 -16 28 -19 27 -19 24 -20 20 -20 18 -19 15 -20 14 -19 11 -19 11 -19 9 -19 7 -20 7 -19 6 -20 4 -19 4 -20 3 -20 1 -19 1 -20 -1 -19 -2 -19 -3 -18 -4 -19 -6 0 0zm-31 -723l-100 159 114 -125 0 0 0 4 -1 7 0 8 -1 11 -1 13 0 15 -1 17 -1 18 0 20 0 21 0 21 1 23 0 23 2 24 1 24 2 24 3 24 3 23 4 24 5 23 5 22 6 21 7 19 7 19 8 17 10 16 9 14 11 11 12 10 12 8 13 6 -99 159 -19 -8 -17 -11 -15 -13 -14 -16 -12 -17 -12 -19 -9 -21 -9 -22 -8 -23 -7 -24 -6 -24 -5 -26 -4 -26 -4 -26 -3 -26 -2 -26 -2 -26 -1 -25 -1 -25 0 -24 -1 -24 1 -22 0 -21 0 -19 1 -18 1 -16 1 -14 0 -12 1 -10 1 -7 0 -5 0 -2 114 -125zm-114 125c3,-37 35,-87 70,-113 36,-25 61,-15 58,22l-128 91z"/> </g> <g> <path class="fil4" d="M8362 9021c497,241 180,1212 -270,1900 -49,74 -244,265 -244,265 0,0 1155,1393 848,2304 -121,620 -992,631 -1720,140 -728,-491 -1252,-1263 -1257,-2167 -6,-1013 1646,-2324 2643,-2442z"/> <path id="1" class="fil5" d="M8130 10940l-77 -38 0 0 40 -62 39 -63 37 -65 37 -65 36 -67 34 -68 33 -68 32 -68 29 -69 28 -68 26 -68 24 -68 21 -67 19 -67 17 -65 15 -65 11 -63 9 -61 6 -60 4 -58 0 -57 -4 -54 -6 -51 -10 -49 -14 -47 -17 -44 -21 -41 -25 -38 -29 -34 -33 -31 -38 -28 -42 -23 103 -158 46 26 41 30 37 34 32 39 28 42 24 45 19 49 15 53 11 55 8 58 3 60 0 63 -3 65 -7 67 -10 69 -13 70 -16 72 -19 72 -21 74 -24 74 -26 75 -29 75 -30 75 -33 75 -34 75 -36 75 -38 74 -39 74 -41 72 -42 72 -43 70 -44 69 0 0zm-224 172l-116 147 47 -126 0 0 2 -1 2 -3 4 -3 4 -4 5 -6 6 -6 7 -6 7 -7 8 -8 8 -9 9 -8 9 -10 9 -9 10 -10 10 -10 10 -11 10 -10 9 -10 10 -11 10 -10 9 -10 9 -10 9 -10 8 -9 7 -9 7 -8 6 -7 5 -6 4 -5 2 -4 1 -1 77 38 -9 14 -9 12 -9 12 -10 12 -9 12 -10 11 -10 12 -11 12 -10 11 -11 12 -11 12 -11 12 -11 12 -11 11 -11 12 -10 11 -11 11 -10 10 -10 11 -10 10 -9 9 -9 9 -9 8 -7 8 -7 7 -7 6 -5 5 -5 5 -4 4 -2 3 -2 1 -1 1 47 -126zm852 2341l-125 74 4 -15 21 -75 15 -81 9 -85 1 -88 -4 -92 -11 -92 -17 -95 -21 -95 -26 -96 -31 -95 -34 -95 -38 -95 -41 -93 -42 -91 -45 -90 -46 -88 -47 -84 -48 -82 -47 -79 -47 -75 -46 -71 -45 -66 -42 -62 -40 -57 -37 -51 -34 -46 -30 -39 -25 -33 -21 -27 -15 -19 -10 -12 -3 -4 116 -147 3 4 10 12 16 20 20 26 26 34 30 40 34 46 38 51 40 58 43 62 45 67 46 71 47 76 48 79 48 83 48 85 46 89 46 91 43 93 41 94 38 96 36 97 31 98 27 99 22 98 17 99 12 99 5 98 -2 98 -10 97 -18 98 -28 98 4 -15zm-4 15c-14,43 -52,88 -85,100 -32,12 -47,-13 -32,-56l117 -44zm-1832 240l108 -155 0 0 68 44 69 41 69 38 70 36 69 32 70 29 70 26 69 24 68 20 68 17 67 14 66 10 65 8 64 4 61 2 60 -2 58 -5 56 -8 52 -12 51 -14 46 -16 44 -20 39 -21 34 -23 30 -24 25 -24 21 -24 17 -26 17 -29 15 -35 14 -41 11 -47 125 -74 -15 66 -22 64 -28 64 -35 63 -41 59 -46 53 -48 47 -49 40 -51 33 -52 29 -54 24 -55 20 -57 16 -58 13 -61 8 -61 6 -64 2 -64 -2 -66 -4 -67 -8 -69 -11 -68 -15 -70 -17 -70 -21 -71 -23 -71 -27 -71 -30 -71 -33 -71 -36 -70 -39 -70 -42 -70 -44 0 0zm-1267 -2193l128 -104 0 0 2 82 5 82 8 81 10 80 14 80 16 78 18 78 22 77 24 76 26 76 29 74 31 73 34 72 36 71 38 70 40 69 43 68 44 66 47 66 48 64 50 62 53 62 54 60 55 58 57 58 59 56 61 54 62 53 63 51 65 50 66 48 67 47 -108 155 -68 -48 -66 -48 -66 -51 -64 -52 -63 -53 -61 -55 -59 -57 -59 -58 -56 -59 -55 -61 -52 -62 -52 -64 -49 -65 -47 -66 -45 -68 -43 -69 -41 -70 -39 -71 -37 -73 -34 -73 -32 -75 -30 -76 -27 -77 -25 -79 -22 -79 -19 -80 -16 -82 -14 -82 -11 -83 -8 -85 -5 -85 -2 -87 0 0zm2759 -2573l-103 158 14 2 -93 14 -96 21 -100 27 -101 33 -105 38 -105 45 -107 49 -108 55 -109 59 -108 64 -108 68 -107 71 -105 75 -104 79 -101 81 -99 84 -96 86 -92 88 -88 89 -83 91 -79 92 -73 92 -67 92 -62 92 -55 92 -49 91 -42 91 -35 91 -28 90 -20 90 -13 90 -4 89 -128 104 4 -102 15 -105 24 -107 34 -108 42 -110 51 -110 59 -110 65 -109 72 -107 78 -107 83 -104 88 -103 92 -100 96 -97 99 -96 103 -92 105 -90 108 -86 109 -82 112 -80 112 -75 113 -71 113 -66 113 -62 113 -57 112 -52 111 -47 108 -40 107 -35 104 -28 102 -22 97 -15 15 2zm-15 -2c29,-3 36,30 16,75 -21,44 -61,83 -90,87l74 -162z"/> </g> <g> <path class="fil8" d="M8362 9021c497,241 180,1212 -270,1900 -14,21 -39,51 -68,83 -293,-452 -1007,-769 -1548,-924 563,-552 1327,-993 1886,-1059z"/> <path id="1" class="fil5" d="M8149 10950l-115 -57 0 0 38 -60 38 -62 37 -63 36 -64 35 -65 33 -66 32 -66 31 -67 29 -67 27 -67 25 -66 23 -66 21 -66 19 -64 16 -64 14 -63 12 -61 8 -60 6 -58 3 -56 0 -55 -3 -52 -6 -50 -10 -48 -13 -45 -16 -43 -21 -40 -24 -36 -28 -34 -33 -30 -37 -27 -41 -23 154 -236 48 26 42 31 38 35 33 39 28 43 24 47 20 51 16 53 11 57 8 60 3 62 0 64 -3 67 -7 69 -11 70 -13 72 -16 73 -19 75 -22 75 -25 76 -26 76 -30 77 -31 77 -33 77 -35 77 -37 76 -39 76 -40 75 -42 75 -42 73 -45 72 -45 71 0 0zm-214 162l178 -215 -118 41 2 -2 3 -3 2 -2 2 -3 2 -2 2 -3 2 -2 2 -2 2 -3 2 -2 2 -2 2 -2 1 -2 2 -2 2 -2 1 -1 1 -2 2 -2 1 -1 1 -1 1 -2 1 -1 0 0 1 -1 1 -2 0 0 0 0 0 0 0 0 0 0 0 1 -1 1 115 57 -3 5 -3 4 -3 5 -3 4 -3 4 -4 5 -3 4 -2 3 -3 4 -4 4 -3 4 -2 3 -3 4 -3 4 -3 3 -3 4 -3 4 -3 3 -3 4 -3 3 -3 4 -3 3 -3 4 -3 3 -3 4 -3 3 -3 4 -3 3 -3 4 -3 3 -3 3 -3 4 -118 42zm118 -42c-51,56 -105,73 -121,36 -16,-36 12,-111 63,-168l58 132zm-1594 -1068l35 156 55 -198 51 15 53 16 53 17 54 18 54 19 55 20 56 21 55 21 56 23 56 23 55 25 56 25 55 26 55 27 55 28 53 29 54 30 52 31 51 31 51 33 49 33 48 34 46 35 45 36 44 37 42 38 40 39 38 39 36 41 35 41 31 42 30 44 -178 215 -28 -41 -30 -40 -33 -39 -34 -39 -37 -38 -39 -37 -40 -37 -42 -36 -44 -34 -46 -35 -46 -33 -48 -33 -50 -31 -50 -31 -51 -30 -53 -30 -52 -28 -54 -28 -54 -26 -54 -26 -55 -25 -55 -24 -55 -23 -55 -22 -55 -22 -55 -20 -54 -20 -54 -18 -53 -18 -52 -17 -52 -16 -51 -14 55 -199zm-55 199c-35,-11 -31,-73 8,-139 40,-66 101,-112 137,-102l-145 241zm2035 -1298l-154 236 21 3 -51 7 -52 9 -53 11 -54 13 -55 15 -56 17 -56 19 -57 21 -58 22 -59 24 -59 26 -59 27 -60 29 -59 30 -60 32 -60 33 -60 35 -60 36 -60 37 -59 39 -60 39 -58 41 -59 42 -57 42 -57 44 -57 45 -55 45 -55 46 -53 47 -53 47 -51 48 -50 48 -35 -156 57 -54 57 -54 59 -52 59 -52 60 -51 61 -50 61 -48 62 -48 63 -46 63 -45 63 -44 64 -42 64 -42 64 -40 64 -38 64 -37 64 -36 64 -34 64 -32 64 -31 63 -29 63 -28 62 -25 62 -24 62 -22 60 -21 60 -18 59 -16 59 -14 57 -12 56 -10 55 -7 21 3zm-21 -3c44,-5 54,45 23,112 -31,66 -91,125 -135,130l112 -242z"/> </g> <g> <path class="fil6" d="M9673 9330c-866,3 -670,-449 -670,-946 0,-102 268,-190 670,-190 401,0 565,123 565,179 0,55 -2,18 -8,28 0,492 89,926 -557,929z"/> <path id="1" class="fil5" d="M8971 8410l64 -52 0 0 -1 47 -1 47 -2 46 -3 45 -3 45 -3 44 -2 43 -2 42 -2 41 0 40 0 39 2 37 4 36 5 35 8 34 9 32 12 31 15 29 17 28 21 27 24 24 28 23 32 21 36 20 40 17 45 15 49 13 55 11 60 8 66 7 72 3 77 1 -41 81 -78 -1 -73 -4 -67 -6 -61 -8 -57 -12 -51 -13 -46 -16 -42 -18 -37 -20 -34 -22 -29 -24 -26 -26 -22 -28 -18 -30 -16 -32 -13 -33 -10 -35 -8 -36 -6 -37 -4 -39 -2 -39 0 -41 0 -41 1 -43 3 -43 2 -43 3 -44 3 -45 2 -45 3 -45 1 -45 1 -46 0 0zm0 0c0,-17 14,-43 32,-57 17,-14 32,-12 32,5l-64 52zm722 -256l-41 81 0 0 -37 0 -36 1 -35 1 -35 2 -34 2 -32 3 -32 3 -31 3 -30 4 -28 4 -28 5 -27 5 -25 5 -25 6 -23 5 -22 7 -21 6 -19 7 -18 7 -17 6 -15 8 -13 7 -12 6 -9 7 -8 5 -4 5 -3 2 1 0 1 -2 0 -1 0 1 0 3 -64 52 1 -16 4 -18 9 -20 11 -20 14 -18 15 -15 14 -14 15 -11 15 -10 16 -10 17 -9 18 -8 19 -8 20 -8 21 -7 22 -7 23 -6 25 -6 25 -6 27 -6 27 -5 28 -4 30 -5 30 -4 32 -3 32 -3 33 -3 34 -2 35 -2 36 -1 37 -1 37 0 0 0zm578 193l-65 52 0 0 0 -2 -1 -3 -1 -4 -3 -6 -4 -5 -5 -7 -6 -6 -7 -7 -9 -7 -9 -7 -10 -7 -12 -7 -13 -7 -14 -8 -15 -7 -16 -7 -17 -7 -19 -6 -20 -7 -21 -6 -22 -6 -24 -5 -24 -5 -26 -5 -28 -5 -28 -4 -30 -3 -31 -3 -33 -2 -34 -2 -35 -1 -37 0 41 -81 38 0 36 1 34 2 33 2 32 3 30 4 30 4 27 4 27 5 25 5 24 6 23 6 22 6 20 7 19 7 18 7 17 7 16 8 14 7 14 8 12 7 11 8 10 8 9 7 8 8 7 7 6 8 6 7 4 8 3 8 2 8 1 10 0 0zm-9 28l-64 52 11 -32 9 -14 14 -13 13 -8 8 -1 5 0 2 2 2 1 1 1 1 2 0 0 1 1 0 1 0 0 0 0 0 0 -1 -1 -4 -2 -15 3 -26 26 -10 20 -3 7 0 2 0 1 0 0 0 -2 0 -1 0 -3 0 -2 0 -4 0 -3 0 -5 0 -4 65 -52 0 5 0 4 0 4 -1 4 0 3 0 3 0 3 0 3 0 2 -1 3 0 5 -3 8 -10 20 -27 27 -16 3 -4 -2 -2 -1 -1 -2 0 0 -1 -1 0 -1 0 0 0 0 0 0 0 0 1 1 2 1 3 0 7 -1 12 -7 13 -13 9 -12 10 -31zm-10 31c-14,23 -34,38 -46,35 -12,-4 -10,-24 3,-46l43 11zm-600 964l41 -81 0 0 58 -1 54 -4 49 -6 45 -9 41 -10 37 -13 33 -14 30 -15 25 -17 21 -17 18 -17 15 -17 13 -19 12 -21 11 -23 10 -26 8 -29 8 -31 6 -33 5 -35 4 -36 3 -38 2 -39 1 -40 0 -41 0 -43 -1 -43 0 -44 -1 -44 -1 -45 -1 -46 0 -46 64 -52 0 45 1 46 1 45 1 44 1 44 0 44 0 43 0 42 -1 41 -2 41 -3 40 -4 39 -6 38 -7 38 -9 37 -11 37 -14 36 -17 36 -21 35 -24 35 -27 32 -29 29 -32 25 -34 22 -36 19 -38 16 -41 14 -45 11 -47 9 -52 7 -55 4 -59 1 0 0z"/> </g> <g> <path class="fil4" d="M7311 7923c-1414,-1079 -1446,-3528 66,-4637 1689,-1240 4380,-575 5067,1618 459,1466 366,2649 -493,3331 -1322,1049 -3326,691 -4640,-312z"/> <path id="1" class="fil5" d="M7382 3220l-10 132 0 0 -130 102 -121 108 -111 114 -102 119 -93 124 -86 129 -77 134 -70 139 -62 144 -55 148 -46 153 -38 155 -30 158 -22 161 -13 161 -5 163 3 163 12 163 20 162 29 160 37 159 45 156 54 154 62 150 71 146 78 141 87 137 95 131 103 125 112 119 119 112 128 104 -110 154 -129 -106 -122 -114 -113 -120 -105 -128 -96 -133 -89 -139 -80 -144 -71 -149 -64 -153 -54 -156 -47 -160 -38 -163 -29 -164 -21 -167 -12 -168 -4 -169 5 -169 14 -170 23 -169 32 -168 41 -168 51 -165 60 -164 70 -162 79 -159 90 -154 99 -151 109 -144 119 -138 127 -131 136 -122 145 -113 0 0zm0 0c35,-26 62,-18 59,19 -3,36 -34,87 -69,113l10 -132zm5125 1619l-125 130 0 0 -70 -199 -81 -190 -91 -182 -101 -173 -111 -163 -120 -154 -128 -145 -136 -136 -144 -126 -150 -117 -156 -107 -162 -97 -167 -88 -172 -78 -176 -68 -179 -58 -182 -49 -184 -38 -187 -28 -187 -17 -188 -8 -188 3 -187 13 -186 24 -185 34 -182 44 -179 55 -176 66 -172 76 -167 86 -161 96 -155 107 10 -132 167 -115 172 -103 175 -91 180 -79 182 -68 186 -57 187 -45 189 -35 191 -24 191 -14 191 -3 191 8 190 18 189 28 187 39 185 49 181 58 178 69 174 79 169 89 164 99 158 108 152 118 145 128 138 137 130 147 122 157 112 166 103 175 93 184 82 194 71 203 0 0zm-557 3459l2 -126 0 0 72 -61 68 -62 63 -65 59 -66 54 -68 50 -71 46 -73 43 -76 40 -79 36 -83 33 -85 30 -90 26 -92 22 -95 19 -98 15 -102 12 -103 8 -107 4 -109 0 -112 -3 -114 -7 -116 -10 -118 -14 -121 -18 -123 -21 -125 -24 -127 -28 -128 -31 -131 -35 -132 -38 -135 -41 -136 125 -130 41 137 39 136 35 134 31 132 29 130 24 129 22 127 18 125 14 123 10 121 7 120 4 117 -1 116 -4 113 -8 112 -12 110 -17 108 -20 106 -24 105 -29 103 -34 101 -38 99 -43 98 -48 95 -53 94 -58 91 -63 88 -67 86 -72 81 -76 78 -80 74 -84 70 0 0zm-4694 -298l110 -154 0 0 124 92 129 88 132 83 135 80 138 75 141 71 144 66 146 62 147 57 150 51 151 47 152 41 154 35 154 31 154 24 155 19 155 12 154 7 154 0 153 -6 151 -13 151 -19 148 -26 147 -33 144 -40 142 -47 139 -54 136 -61 133 -68 128 -75 125 -83 120 -90 -2 126 -132 98 -134 90 -138 81 -141 72 -142 65 -146 56 -147 48 -149 42 -151 33 -152 27 -154 20 -155 13 -155 6 -157 0 -156 -7 -157 -13 -157 -19 -156 -24 -156 -31 -154 -36 -154 -41 -153 -47 -151 -52 -149 -57 -147 -62 -145 -67 -142 -72 -139 -75 -136 -81 -134 -84 -129 -89 -126 -92 0 0z"/> </g> <g> <path class="fil9" d="M9104 5308c594,0 1076,476 1076,1062 0,587 -482,1062 -1076,1062 -595,0 -1077,-475 -1077,-1062 0,-586 482,-1062 1077,-1062z"/> <path id="1" class="fil5" d="M10212 6344l-64 52 0 0 -2 -53 -4 -53 -7 -52 -9 -51 -12 -50 -14 -50 -17 -49 -19 -47 -21 -47 -23 -45 -26 -44 -28 -42 -29 -42 -32 -39 -33 -38 -36 -37 -37 -35 -38 -33 -41 -31 -42 -29 -43 -28 -45 -25 -45 -23 -48 -21 -48 -19 -50 -17 -50 -14 -52 -12 -52 -9 -53 -7 -54 -4 -55 -1 41 -81 56 1 56 5 54 6 54 10 52 12 52 14 50 17 50 19 48 22 47 23 45 26 44 28 43 30 41 32 39 33 38 36 36 37 34 39 32 40 31 43 28 43 26 45 24 46 22 48 19 49 18 50 14 51 13 52 9 54 7 54 5 55 1 56 0 0zm-1129 1128l41 -81 0 0 55 -1 54 -4 52 -7 52 -9 51 -11 50 -14 49 -17 47 -18 46 -21 45 -22 43 -25 42 -26 40 -28 38 -30 36 -31 35 -32 32 -34 31 -35 29 -36 27 -38 25 -38 24 -41 21 -41 20 -43 18 -45 16 -46 13 -47 12 -49 9 -50 6 -51 4 -52 2 -53 64 -52 -1 57 -5 55 -7 56 -10 54 -12 54 -16 54 -18 52 -21 52 -23 51 -26 50 -28 49 -31 47 -33 46 -35 44 -37 42 -38 40 -41 38 -41 35 -44 34 -44 31 -46 29 -47 27 -48 24 -49 22 -51 20 -51 17 -52 14 -53 12 -54 10 -55 7 -56 4 -56 1 0 0zm-1088 -1076l65 -52 0 0 1 53 4 53 7 52 9 51 12 51 14 49 17 49 19 48 21 46 23 45 26 44 28 43 29 41 32 40 34 38 35 36 37 35 39 33 40 31 42 30 43 27 45 25 46 24 47 21 48 19 50 16 50 14 52 12 52 9 53 7 54 4 55 1 -41 81 -56 -1 -55 -4 -55 -7 -53 -9 -53 -12 -52 -15 -50 -17 -50 -19 -48 -21 -46 -24 -46 -26 -44 -28 -43 -30 -41 -31 -39 -34 -38 -36 -36 -37 -34 -39 -32 -40 -30 -42 -29 -44 -26 -45 -24 -46 -22 -48 -19 -49 -18 -50 -14 -51 -12 -52 -10 -53 -7 -55 -4 -55 -2 -56 0 0zm1129 -1128l-41 81 0 0 -55 1 -53 4 -53 7 -52 9 -51 12 -50 14 -49 16 -47 18 -46 21 -45 23 -43 24 -42 26 -40 28 -38 30 -36 31 -34 32 -33 34 -31 35 -29 36 -27 38 -25 39 -23 40 -22 42 -20 43 -18 44 -15 46 -14 48 -11 48 -10 50 -6 51 -4 52 -1 53 -65 52 2 -56 4 -56 7 -55 10 -55 13 -54 15 -53 18 -53 21 -52 23 -51 26 -50 28 -48 31 -48 33 -45 35 -44 37 -42 39 -40 40 -38 42 -36 43 -33 44 -32 46 -29 47 -26 48 -25 50 -22 50 -19 51 -17 52 -15 54 -12 54 -10 54 -6 56 -5 56 -1 0 0z"/> </g> <ellipse class="fil15" cx="8956" cy="6383" rx="482" ry="496"/> <g> <path class="fil9" d="M11792 5308c352,0 550,476 444,1062 -106,587 -478,1062 -829,1062 -352,0 -550,-475 -444,-1062 106,-586 478,-1062 829,-1062z"/> <path id="1" class="fil5" d="M12267 6351l-63 38 0 0 9 -53 7 -53 6 -52 4 -51 2 -50 0 -49 -1 -49 -2 -47 -4 -46 -6 -45 -7 -44 -9 -42 -10 -41 -11 -40 -13 -38 -14 -36 -15 -34 -17 -33 -18 -31 -19 -29 -21 -27 -21 -25 -23 -23 -24 -21 -25 -18 -26 -17 -26 -14 -28 -11 -29 -9 -30 -7 -30 -4 -31 -1 41 -81 33 1 33 5 32 7 30 9 30 12 28 15 27 17 26 20 25 21 24 24 22 26 22 29 20 30 18 32 18 34 16 36 14 37 13 39 12 41 11 42 9 44 7 46 6 46 4 48 3 49 1 50 -1 52 -2 52 -4 54 -6 54 -7 55 -10 56 0 0zm-881 1121l41 -81 0 0 32 -1 32 -4 31 -6 31 -9 31 -11 31 -14 31 -15 30 -18 29 -20 29 -21 29 -24 28 -25 28 -27 27 -29 27 -30 26 -33 26 -34 25 -35 24 -37 24 -39 22 -41 23 -42 21 -43 20 -45 19 -46 18 -47 17 -48 16 -50 15 -51 13 -51 12 -52 10 -54 63 -38 -11 56 -12 55 -14 55 -16 54 -17 53 -18 53 -20 51 -21 51 -22 49 -24 48 -25 47 -26 46 -27 44 -28 43 -29 42 -30 39 -30 38 -32 37 -32 34 -33 32 -34 30 -34 28 -34 25 -34 23 -35 20 -35 18 -35 15 -34 13 -35 10 -35 7 -34 4 -35 1 0 0zm-455 -1083l63 -38 0 0 -8 53 -8 53 -5 52 -4 51 -2 50 -1 50 1 48 3 47 4 47 6 45 7 43 9 43 10 41 11 39 13 38 14 36 15 35 17 32 18 31 19 29 21 27 21 25 23 23 24 21 25 19 26 16 26 14 28 11 29 10 30 6 30 4 31 1 -41 81 -34 -1 -32 -4 -32 -7 -30 -10 -30 -12 -28 -15 -27 -17 -26 -19 -25 -22 -24 -24 -22 -26 -22 -28 -20 -30 -18 -33 -18 -34 -16 -35 -14 -38 -14 -39 -11 -41 -11 -42 -9 -44 -7 -45 -6 -47 -4 -48 -3 -49 -1 -50 1 -51 2 -53 4 -53 6 -55 7 -55 9 -56 0 0zm882 -1121l-41 81 0 0 -32 1 -32 4 -31 7 -31 8 -31 12 -31 13 -31 16 -30 17 -29 20 -29 21 -29 24 -28 25 -28 27 -27 29 -27 31 -26 32 -26 34 -25 36 -24 37 -24 39 -23 40 -22 42 -21 43 -20 45 -19 46 -18 47 -17 49 -16 49 -15 51 -13 51 -12 53 -11 53 -63 38 12 -56 12 -55 14 -55 16 -54 17 -53 18 -52 20 -52 21 -50 22 -50 24 -48 25 -47 26 -46 27 -44 28 -43 29 -41 30 -40 30 -38 32 -36 32 -34 33 -33 34 -30 33 -27 35 -26 34 -22 35 -21 35 -18 35 -15 34 -12 35 -10 35 -7 34 -5 35 -1 0 0z"/> </g> <ellipse class="fil15" cx="11488" cy="6488" rx="342" ry="470"/> <g> <path class="fil5" d="M8304 5061c-45,64 -105,99 -133,78 -28,-20 -15,-89 30,-153l103 75zm578 -458l-93 238 0 0 -41 12 -39 12 -36 11 -35 12 -33 12 -31 13 -29 12 -27 11 -26 12 -24 12 -22 11 -21 11 -18 11 -18 10 -15 10 -15 10 -12 8 -12 9 -9 7 -9 7 -7 6 -6 5 -4 4 -4 3 -2 3 -1 1 0 0 0 -1 1 -1 3 -3 2 -3 5 -7 -103 -75 6 -7 5 -7 6 -7 6 -8 8 -10 10 -10 9 -10 11 -11 12 -11 13 -12 13 -12 15 -12 16 -13 17 -13 18 -13 19 -13 20 -14 22 -13 23 -14 24 -13 25 -14 27 -14 29 -14 29 -14 32 -13 33 -14 34 -13 36 -13 38 -14 40 -12 41 -13 44 -12 0 0zm1012 -1l-141 241 -2 -1 -4 -1 -7 -1 -10 -2 -13 -3 -15 -3 -17 -3 -20 -3 -22 -4 -25 -4 -26 -4 -28 -4 -30 -3 -31 -4 -33 -3 -34 -3 -36 -3 -37 -2 -38 -2 -39 -1 -40 -1 -40 0 -41 1 -42 2 -42 3 -42 3 -42 5 -42 5 -42 7 -42 8 -42 9 -40 10 93 -238 45 -12 46 -10 45 -8 45 -8 45 -6 45 -4 45 -4 44 -3 43 -2 43 -1 42 0 42 1 40 1 39 2 38 2 37 3 35 3 34 4 33 3 30 4 29 4 27 4 25 4 23 4 20 3 18 4 16 3 13 2 11 3 7 1 5 1 2 1zm0 0c36,8 34,69 -5,136 -39,66 -100,113 -136,105l141 -241z"/> </g> <g> <path class="fil5" d="M11323 4780c-39,-4 -40,-62 -4,-129 37,-67 98,-118 137,-113l-133 242zm765 61l-170 226 -11 -12 -13 -11 -14 -12 -15 -11 -15 -12 -16 -12 -17 -12 -18 -11 -18 -12 -19 -12 -19 -11 -20 -11 -20 -11 -21 -11 -21 -11 -21 -10 -21 -10 -21 -10 -22 -9 -21 -9 -21 -8 -21 -8 -21 -8 -21 -7 -20 -7 -20 -6 -20 -5 -19 -5 -18 -4 -18 -4 -17 -3 -16 -2 133 -242 19 2 19 4 20 4 20 4 21 5 20 6 22 7 21 6 22 8 22 8 22 8 22 9 22 9 22 10 22 10 22 10 22 11 22 11 21 11 21 12 21 11 20 12 19 12 20 13 18 12 18 12 18 13 16 13 16 12 15 13 14 13 13 12zm0 0c25,26 8,96 -39,159 -47,62 -106,92 -131,67l170 -226z"/> </g> <g> <path class="fil5" d="M8694 7523l-58 19c8,-22 27,-43 43,-49 16,-5 23,8 15,30zm522 976l0 0 -78 -16 -71 -18 -65 -22 -60 -25 -53 -28 -49 -30 -43 -33 -38 -35 -34 -36 -29 -38 -25 -39 -21 -41 -18 -41 -14 -41 -11 -41 -9 -42 -5 -41 -4 -40 -1 -40 0 -38 2 -37 3 -36 5 -33 4 -31 6 -28 5 -26 6 -23 5 -19 5 -16 3 -11 3 -8 1 -4 58 -19 0 1 -2 6 -3 9 -4 13 -5 17 -5 20 -5 23 -4 26 -5 28 -4 31 -3 32 -1 35 -1 35 1 37 4 38 5 39 8 39 11 39 13 40 17 38 20 39 24 37 28 37 33 35 37 34 41 31 47 30 52 27 58 24 64 22 70 18 77 15 0 0 -46 81zm949 -709l-1 3 0 7 -1 11 -2 15 -3 18 -3 22 -5 25 -6 27 -7 29 -9 32 -11 33 -13 35 -16 37 -17 37 -21 38 -24 39 -26 38 -30 38 -33 36 -36 35 -39 32 -41 29 -45 26 -47 23 -51 19 -54 17 -58 12 -62 8 -65 4 -70 -1 -74 -5 -79 -10 46 -81 77 10 72 6 68 0 63 -4 59 -8 55 -11 50 -15 46 -18 42 -20 37 -22 34 -24 31 -25 27 -26 24 -26 21 -28 20 -28 17 -29 16 -29 14 -29 13 -30 11 -29 9 -29 8 -27 6 -26 6 -24 4 -22 3 -20 2 -16 2 -13 1 -10 0 -6 0 -2 65 -48zm0 0l-65 48c1,-17 16,-43 34,-56 18,-14 31,-10 31,8z"/> </g> <g> <g> <path class="fil16" d="M14887 17964l1461 0c82,0 150,67 150,149l0 397c0,82 -68,150 -150,150l-1461 0c-82,0 -149,-68 -149,-150l0 -397c0,-82 67,-149 149,-149z"/> <path id="1" class="fil5" d="M16307 18070l-1461 0 83 -212 1461 0 0 0 -83 212zm255 -24l-129 135 0 0 0 -2 0 -4 0 -4 -1 -4 -1 -5 -2 -5 -1 -5 -2 -5 -3 -5 -2 -5 -3 -5 -3 -5 -4 -5 -4 -5 -4 -4 -4 -5 -4 -4 -5 -4 -5 -4 -5 -4 -6 -3 -5 -3 -6 -3 -6 -3 -6 -2 -6 -2 -6 -2 -6 -1 -6 -2 -7 0 -6 -1 -7 0 83 -212 8 0 9 1 8 1 9 2 8 2 8 2 8 2 7 3 8 4 7 4 7 4 7 4 6 5 7 5 6 5 6 6 5 6 6 6 5 6 5 7 4 7 5 8 4 7 3 9 4 8 3 9 2 9 3 10 1 10 2 11 1 12 0 13 0 0zm-129 532l0 -397 129 -135 0 396 0 0 -129 136zm-126 188l83 -212 0 0 6 0 6 -1 6 -1 6 -1 6 -1 5 -1 5 -2 5 -2 4 -2 4 -2 4 -2 3 -2 3 -2 2 -2 1 -1 1 0 0 0 -1 1 -2 2 -2 3 -3 5 -3 5 -3 6 -3 6 -3 7 -1 5 -2 4 0 3 -1 2 0 0 0 -1 0 -2 129 -136 0 14 -1 14 -2 15 -3 17 -4 17 -6 18 -6 20 -8 19 -9 20 -10 19 -10 18 -11 16 -10 15 -11 14 -10 11 -10 11 -10 9 -9 9 -10 7 -9 6 -9 6 -9 5 -9 5 -8 4 -9 3 -9 3 -9 3 -9 2 -8 2 -9 1 -9 0 -9 1 0 0zm-1378 -212l1461 0 -83 212 -1461 0 0 0 83 -212zm-255 24l128 -136 0 0 0 3 1 4 0 4 1 4 1 5 1 4 2 5 2 5 2 6 3 5 3 5 3 5 4 5 3 4 4 5 5 4 4 5 5 4 5 4 5 3 5 4 6 3 5 3 6 3 6 2 6 2 7 2 6 1 6 1 7 1 6 1 7 0 -83 212 -9 -1 -8 0 -9 -1 -8 -2 -8 -2 -8 -2 -8 -3 -8 -3 -7 -3 -7 -4 -7 -4 -7 -4 -7 -5 -6 -5 -6 -5 -6 -6 -6 -6 -5 -6 -5 -6 -5 -7 -5 -7 -4 -8 -4 -8 -4 -8 -3 -8 -3 -9 -3 -10 -2 -9 -2 -11 -1 -11 -1 -11 0 -13 0 0zm128 -532l0 396 -128 136 0 -397 0 0 128 -135zm127 -188l-83 212 0 0 -6 0 -7 1 -6 0 -6 1 -5 2 -6 1 -5 2 -4 2 -5 2 -4 2 -3 2 -3 2 -3 2 -2 1 -1 2 -1 0 0 0 1 -1 2 -2 2 -3 3 -5 3 -5 3 -6 3 -7 2 -6 2 -5 1 -4 1 -3 0 -2 0 0 0 1 0 2 -128 135 0 -13 1 -14 2 -15 3 -17 4 -17 5 -19 7 -19 8 -19 9 -20 9 -19 11 -18 10 -17 11 -14 10 -14 11 -12 10 -10 9 -10 10 -8 9 -7 9 -7 10 -5 8 -6 9 -4 9 -4 9 -4 9 -3 8 -2 9 -2 9 -2 9 -1 9 -1 9 0 0 0z"/> </g> <g> <polygon class="fil17" points="15609,2810 16056,3804 16502,4799 15609,5725 14716,4799 15163,3804 "/> <path id="1" class="fil5" d="M15964 3907l-447 -995 184 -205 447 995 0 0 -184 205zm184 -205c16,36 -12,111 -63,167 -51,57 -105,74 -121,38l184 -205zm262 1199l-446 -994 184 -205 446 994 -70 175 -114 30zm184 -205c16,36 -12,111 -63,168 -50,57 -105,73 -121,37l184 -205zm-1007 956l893 -926 44 145 -892 927 -108 39 63 -185zm45 146c-52,53 -104,64 -117,24 -12,-40 20,-116 72,-170l45 146zm-830 -1112l893 927 -171 224 -893 -926 6 -101 165 -124zm-171 225c-25,-26 -7,-97 41,-159 47,-62 105,-91 130,-66l-171 225zm612 -1119l-447 995 -159 23 446 -994 0 0 160 -24zm-160 24c30,-67 90,-126 134,-133 44,-6 56,43 26,109l-160 24zm606 -1018l-446 994 -160 24 447 -995 171 -114 -12 91zm-159 23c30,-66 90,-126 134,-132 44,-7 55,42 25,109l-159 23z"/> </g> <g> <polygon class="fil18" points="15609,2810 15913,3487 15615,3796 15309,3478 "/> <path id="1" class="fil5" d="M15852 3555l-304 -677 123 -137 304 678 -47 117 -76 19zm123 -136c10,24 -8,74 -42,112 -34,37 -70,48 -81,24l123 -136zm-375 329l298 -309 30 97 -298 309 -72 26 42 -123zm30 97c-34,35 -69,43 -77,16 -8,-27 13,-77 47,-113l30 97zm-264 -441l306 317 -114 150 -306 -318 4 -67 110 -82zm-114 149c-16,-17 -4,-64 27,-106 32,-41 71,-61 87,-43l-114 149zm410 -751l-300 669 -106 15 300 -669 115 -76 -9 61zm-106 15c20,-44 60,-84 89,-88 30,-4 37,28 17,73l-106 15z"/> </g> <g> <polygon class="fil19" points="14729,4794 15177,4375 15624,4794 16078,4438 16493,4794 16502,18111 14729,18111 "/> <path id="1" class="fil5" d="M15189 4457l-448 420 -25 -165 448 -419 97 -31 -72 195zm-25 -164c52,-50 101,-53 108,-8 7,46 -30,123 -83,172l-25 -164zm376 615l-448 -420 169 -226 448 419 -87 208 -82 19zm169 -227c25,24 9,95 -38,157 -47,63 -105,94 -131,70l169 -227zm367 -149l-454 357 4 -189 453 -357 82 -20 -85 209zm3 -189c54,-42 96,-34 95,19 -1,52 -45,129 -98,170l3 -189zm331 566l-416 -357 167 -229 416 357 13 37 -180 192zm167 -229c27,23 11,93 -35,156 -46,63 -105,96 -132,73l167 -229zm-171 13508l-9 -13316 193 -155 9 13316 -159 199 -34 -44zm193 -155c0,51 -43,128 -97,171 -53,43 -96,36 -96,-16l193 -155zm-1809 -44l1774 0 -124 243 -1773 0 -35 -44 158 -199zm-123 243c-41,0 -47,-54 -13,-121 35,-68 95,-122 136,-122l-123 243zm158 -13515l0 13316 -193 155 0 -13316 84 -160 109 5zm-193 155c0,-51 43,-128 97,-171 53,-43 96,-36 96,16l-193 155z"/> </g> <g> <path class="fil5" d="M15551 4846c0,-34 29,-85 64,-114 36,-28 65,-24 65,11l-129 103zm0 13316l0 -13316 129 -103 0 13316 -129 103zm129 -103c0,34 -29,85 -65,114 -35,28 -64,24 -64,-11l129 -103z"/> </g> <g> <path class="fil20" d="M14807 18116l1615 0c26,0 46,21 46,46l0 199c0,25 -20,46 -46,46l-1615 0c-25,0 -46,-21 -46,-46l0 -199c0,-25 21,-46 46,-46z"/> <path id="1" class="fil5" d="M16402 18155l-1615 0 40 -78 1615 0 0 0 -40 78zm98 -18l-63 50 0 0 0 -1 0 -1 0 -1 0 -1 0 -2 -1 -1 0 -2 -1 -1 0 -2 -1 -1 -1 -1 -1 -2 -1 -1 -1 -2 -1 -1 -1 -1 -2 -1 -1 -2 -1 -1 -2 -1 -1 -1 -2 -1 -1 0 -2 -1 -2 -1 -1 0 -2 -1 -2 0 -1 -1 -2 0 -2 0 -2 0 40 -78 3 0 3 0 3 1 3 0 3 1 2 1 3 0 3 1 2 2 2 1 3 1 2 2 2 1 2 2 2 2 2 1 2 2 2 2 2 3 1 2 2 2 1 2 1 3 2 3 1 2 1 3 0 3 1 3 1 4 0 3 0 4 1 3 0 0zm-63 249l0 -199 63 -50 0 199 0 0 -63 50zm-35 60l40 -78 0 0 2 0 1 0 2 0 1 -1 1 0 1 0 1 -1 1 0 0 0 0 0 0 0 0 0 0 0 -1 1 -1 1 -1 1 -2 1 -1 2 -2 2 -1 2 -2 2 -1 2 -1 2 -1 2 0 1 0 1 -1 1 0 0 0 0 0 0 0 -1 0 0 63 -50 -1 4 0 4 0 4 -1 5 -1 5 -2 5 -2 5 -2 5 -2 6 -3 6 -4 6 -4 6 -4 6 -4 5 -5 5 -4 5 -4 4 -5 4 -4 3 -4 3 -4 3 -4 2 -3 2 -4 1 -4 2 -3 1 -3 1 -4 1 -3 0 -3 1 -3 0 -4 0 0 0zm-1575 -78l1615 0 -40 78 -1615 0 0 0 40 -78zm-97 18l62 -50 0 0 0 1 0 1 0 1 0 1 1 2 0 1 1 2 0 1 1 1 1 2 0 1 1 2 1 1 1 2 2 1 1 1 1 1 1 2 2 1 1 1 2 1 1 1 2 0 1 1 2 1 2 0 1 1 2 0 2 0 2 1 1 0 2 0 -40 78 -3 0 -3 0 -3 -1 -3 0 -2 -1 -3 -1 -3 -1 -2 -1 -3 -1 -2 -1 -2 -1 -3 -2 -2 -1 -2 -2 -2 -2 -2 -1 -2 -2 -1 -2 -2 -3 -2 -2 -1 -2 -2 -3 -1 -2 -1 -3 -1 -2 -1 -3 -1 -3 -1 -3 0 -4 -1 -3 0 -4 0 -3 0 0zm62 -249l0 199 -62 50 0 -199 0 0 62 -50zm35 -60l-40 78 0 0 -1 0 -2 0 -1 0 -2 1 -1 0 -1 0 -1 0 0 1 -1 0 0 0 0 0 0 0 1 0 0 -1 1 -1 1 -1 2 -1 1 -2 2 -2 2 -2 1 -2 1 -2 1 -2 1 -2 0 -1 1 -1 0 -1 0 0 0 0 0 0 0 1 0 0 -62 50 0 -4 0 -4 1 -4 1 -5 1 -5 1 -5 2 -5 2 -5 3 -6 3 -6 3 -6 4 -6 4 -6 4 -5 5 -5 4 -5 5 -4 4 -4 4 -3 4 -3 4 -3 4 -2 4 -2 3 -1 4 -2 3 -1 4 -1 3 -1 3 0 4 -1 3 0 3 0 0 0z"/> </g> </g> <g> <path class="fil4" d="M14830 9542c129,7 463,566 320,652 -143,85 -325,21 -442,-192 -98,-177 -229,-479 122,-460z"/> <path id="1" class="fil5" d="M15164 10122l0 0 -14 11 -20 25 -9 19 -1 2 1 -8 0 -14 -2 -18 -4 -21 -5 -23 -7 -24 -9 -26 -10 -26 -11 -27 -13 -28 -14 -28 -14 -28 -16 -27 -16 -28 -16 -26 -17 -26 -18 -25 -17 -24 -18 -22 -17 -21 -17 -19 -17 -17 -16 -15 -15 -13 -14 -9 -12 -7 -11 -5 -7 -1 85 -162 18 3 17 7 17 9 17 12 17 14 18 16 17 19 18 20 19 22 18 23 18 25 18 26 18 27 17 27 17 29 16 28 15 29 14 30 13 29 13 28 10 29 10 28 8 27 6 27 5 27 2 26 0 26 -3 30 -10 35 -23 47 -38 49 -38 30 0 0 27 -143zm-396 -190l0 0 11 19 11 18 12 17 11 16 12 15 13 15 12 14 13 12 13 12 13 12 13 10 13 9 14 9 13 8 14 6 14 7 13 5 14 4 13 4 14 2 13 2 13 1 13 0 13 0 12 -1 13 -2 11 -3 12 -3 11 -4 10 -4 10 -5 9 -5 -27 143 -18 11 -18 8 -18 8 -17 6 -17 5 -17 3 -17 3 -17 2 -17 0 -16 0 -16 -1 -16 -3 -17 -3 -16 -4 -15 -5 -16 -6 -16 -7 -15 -8 -15 -8 -15 -10 -15 -10 -15 -12 -14 -12 -14 -13 -14 -14 -14 -15 -13 -16 -13 -16 -13 -18 -12 -18 -12 -20 -11 -20 0 0 120 -140zm20 -309l0 0 -30 -1 -27 1 -23 3 -21 3 -16 5 -13 5 -7 4 -2 1 3 -3 7 -9 6 -9 3 -5 0 0 -2 6 -1 10 0 12 1 14 1 16 3 17 4 18 5 18 6 19 6 19 7 19 8 19 8 19 9 19 9 19 9 18 9 18 9 17 9 17 -120 140 -10 -17 -9 -18 -10 -18 -9 -19 -10 -20 -9 -20 -8 -20 -8 -20 -8 -21 -7 -21 -7 -21 -5 -21 -5 -21 -3 -21 -3 -21 -1 -22 1 -23 3 -24 5 -26 10 -30 16 -35 23 -36 28 -33 28 -26 27 -18 25 -14 26 -10 25 -7 27 -5 29 -3 31 -1 33 1 0 0 -85 162z"/> </g> <g> <path class="fil7" d="M5467 5154c-203,-967 357,-483 357,-483 0,0 -280,-1257 339,-1788 618,-532 425,580 425,580 0,0 454,-1479 2019,-1769 1566,-289 619,484 619,484 0,0 1227,-571 2348,-49 1121,522 164,812 164,812 0,0 918,-68 1131,251 212,319 -889,880 -1894,928 -1005,48 -2116,-348 -2658,-300 -541,49 -676,773 -502,1266 174,493 -56,1152 -340,1478 -285,325 -171,700 -171,700 0,0 82,407 -350,114 -397,-270 -1411,-1863 -1487,-2224z"/> <path id="1" class="fil5" d="M5729 4764l190 -187 -178 208 -1 -1 -5 -4 -7 -6 -9 -7 -12 -9 -14 -10 -16 -10 -17 -11 -18 -11 -19 -10 -20 -10 -20 -8 -20 -7 -20 -5 -18 -4 -17 -1 -14 1 -9 2 -1 1 9 -7 18 -19 15 -22 5 -9 -2 7 -5 22 -3 33 -2 42 1 51 5 60 8 67 12 77 17 84 -190 185 -17 -88 -13 -80 -9 -74 -5 -66 -2 -61 2 -56 6 -53 11 -52 18 -55 30 -61 45 -64 51 -51 45 -31 37 -16 32 -8 28 -2 27 2 26 4 24 7 25 8 23 10 22 11 22 12 20 11 18 12 17 11 15 11 13 9 10 8 8 7 5 4 2 1 -179 208zm428 -1970l11 178 0 0 -40 37 -35 39 -31 40 -28 44 -27 47 -25 53 -23 57 -21 61 -18 64 -16 67 -14 68 -11 70 -8 71 -7 70 -4 71 -2 69 0 68 1 67 2 65 4 62 4 59 5 56 6 53 6 48 6 44 6 40 6 34 5 29 4 22 3 17 3 10 0 3 -190 187 0 -4 -3 -11 -3 -18 -5 -24 -5 -31 -6 -35 -6 -41 -7 -46 -6 -51 -6 -54 -5 -59 -5 -62 -4 -65 -2 -68 -1 -70 0 -73 2 -75 5 -76 7 -77 9 -79 13 -80 16 -80 19 -81 24 -81 28 -82 33 -82 40 -83 46 -83 53 -81 60 -79 66 -73 71 -66 0 0zm341 707l179 -76 -184 96 0 -2 2 -8 2 -14 2 -18 3 -23 4 -27 3 -30 3 -33 3 -35 2 -37 2 -39 1 -39 0 -39 -2 -40 -3 -38 -4 -37 -6 -35 -7 -33 -9 -31 -12 -27 -13 -23 -15 -19 -16 -15 -19 -11 -20 -6 -23 -1 -24 3 -27 8 -31 14 -35 21 -40 28 -46 37 -11 -178 66 -53 62 -44 58 -34 54 -24 50 -15 44 -6 40 2 35 10 30 17 25 23 21 28 18 31 15 36 12 38 9 40 7 42 5 44 3 44 1 45 1 44 -1 44 -2 43 -3 41 -3 38 -3 37 -4 33 -3 30 -4 25 -3 21 -2 16 -2 10 -1 4 -184 97zm2161 -1927l-104 241 0 0 -140 30 -133 36 -127 41 -120 47 -113 51 -107 56 -101 58 -95 62 -89 63 -83 66 -78 67 -72 68 -67 68 -63 69 -58 69 -54 68 -50 68 -46 66 -42 65 -38 63 -35 61 -31 57 -28 55 -24 51 -21 46 -18 41 -15 36 -11 31 -9 23 -6 17 -3 10 -1 1 -179 76 3 -8 5 -15 8 -23 11 -31 15 -38 18 -45 22 -50 25 -56 30 -61 34 -67 37 -70 43 -74 47 -77 52 -80 56 -82 62 -84 67 -84 71 -85 77 -85 83 -83 87 -82 92 -80 98 -77 103 -74 107 -69 114 -66 118 -61 124 -56 129 -50 135 -45 141 -38 147 -31 0 0zm599 490l-64 227 31 -206 0 0 6 -5 10 -9 13 -11 15 -15 18 -16 19 -19 19 -19 19 -21 17 -20 16 -20 13 -17 9 -15 7 -11 3 -8 3 -6 1 -7 0 -9 -3 -13 -8 -16 -14 -17 -23 -16 -31 -15 -40 -12 -51 -9 -62 -6 -72 -2 -85 2 -97 8 -110 12 -124 18 -138 24 104 -241 141 -25 127 -18 114 -13 101 -7 90 -3 78 2 67 6 58 11 49 15 39 19 32 23 25 28 16 33 9 39 0 46 -10 51 -17 54 -24 53 -28 50 -30 46 -31 42 -31 38 -31 36 -29 32 -29 29 -26 26 -25 23 -21 20 -18 16 -14 12 -9 8 -5 4 31 -206zm2393 -53l-154 237 0 0 -104 -45 -104 -40 -105 -33 -104 -28 -104 -23 -103 -18 -102 -14 -102 -9 -100 -5 -98 -2 -97 1 -95 5 -92 7 -90 9 -86 12 -84 13 -81 15 -77 17 -74 17 -69 17 -65 18 -61 18 -56 18 -51 16 -46 16 -40 15 -35 14 -28 11 -23 9 -16 7 -9 5 -2 0 64 -227 5 -3 11 -5 19 -8 24 -10 32 -12 37 -15 42 -15 49 -17 53 -18 59 -18 63 -19 68 -19 72 -18 77 -18 80 -17 83 -15 87 -14 90 -12 93 -10 95 -7 98 -5 99 -1 102 2 103 5 104 10 106 14 106 19 107 23 107 29 108 34 107 40 107 47 0 0zm145 809l-116 242 103 -240 1 0 7 -2 11 -4 14 -5 18 -7 20 -9 22 -9 24 -11 24 -13 23 -13 23 -13 20 -14 17 -13 12 -11 7 -6 0 0 -3 5 -3 5 1 -1 1 -11 -1 -18 -6 -25 -12 -30 -19 -33 -28 -35 -35 -38 -45 -40 -55 -41 -64 -43 -75 -45 -87 -47 -98 -47 154 -237 100 49 88 47 78 46 67 45 57 44 49 43 39 42 32 41 24 41 17 42 10 43 3 46 -6 52 -17 58 -29 62 -36 58 -40 50 -40 40 -37 34 -37 27 -35 24 -34 21 -33 18 -31 16 -29 14 -27 12 -25 10 -21 8 -18 7 -13 4 -9 3 -4 2 102 -240zm1162 264l-178 216 0 0 -20 -26 -23 -24 -27 -22 -31 -22 -34 -19 -36 -18 -39 -16 -41 -15 -43 -13 -45 -12 -46 -10 -46 -10 -48 -7 -48 -7 -47 -6 -48 -5 -47 -3 -46 -3 -45 -3 -43 -1 -42 -1 -39 -1 -38 0 -34 1 -32 0 -28 1 -25 1 -21 1 -16 1 -12 1 -8 0 -2 0 116 -242 3 -1 8 0 13 -1 17 -1 22 -1 25 -1 29 -1 33 0 35 -1 38 0 41 1 43 1 44 1 46 3 48 3 48 4 49 4 50 6 49 7 49 9 49 9 48 11 47 13 46 14 44 15 42 18 40 20 37 21 35 24 31 26 28 29 25 32 0 0zm-2043 1157l119 -243 0 0 93 -6 93 -8 94 -12 93 -14 92 -16 92 -19 91 -20 89 -23 88 -25 87 -26 84 -28 81 -29 79 -30 76 -32 73 -32 69 -33 65 -34 60 -33 56 -34 51 -33 44 -32 38 -31 31 -27 22 -23 14 -16 6 -8 1 -3 1 -3 2 -8 -1 -16 -6 -20 -12 -24 178 -216 19 38 12 43 2 51 -9 59 -24 67 -35 68 -44 64 -47 57 -50 51 -52 47 -56 44 -58 42 -62 41 -65 39 -68 38 -72 37 -75 36 -78 35 -81 33 -83 32 -86 31 -87 29 -90 27 -91 26 -93 23 -94 22 -95 19 -96 17 -96 14 -97 12 -96 9 -96 6 0 0zm-2655 -299l115 -243 0 0 55 -3 57 -1 61 1 63 4 65 5 68 8 71 9 72 10 75 12 78 13 79 14 81 15 83 15 84 16 87 16 87 16 89 16 90 16 91 16 92 16 93 14 94 14 94 13 94 11 95 11 95 9 95 7 95 5 95 4 94 1 94 0 93 -4 -119 243 -96 4 -96 0 -96 -1 -97 -4 -96 -5 -97 -8 -96 -9 -96 -10 -95 -12 -95 -13 -95 -14 -93 -14 -93 -16 -91 -16 -91 -16 -89 -16 -88 -16 -86 -17 -84 -15 -83 -16 -81 -14 -78 -14 -77 -13 -74 -11 -72 -11 -69 -9 -67 -7 -63 -5 -60 -4 -58 -1 -53 0 -50 4 0 0zm-352 1045l-186 198 0 0 -16 -49 -14 -50 -13 -51 -10 -52 -8 -53 -7 -54 -4 -54 -2 -55 -1 -55 2 -55 4 -56 6 -56 9 -55 11 -56 14 -56 16 -56 20 -56 23 -56 26 -57 31 -56 35 -56 39 -54 43 -51 45 -47 48 -42 48 -36 49 -31 50 -26 50 -20 52 -16 53 -12 54 -7 -115 243 -45 5 -42 9 -38 12 -34 14 -31 16 -27 17 -22 17 -20 17 -17 18 -15 18 -14 20 -14 22 -14 26 -14 29 -14 33 -12 36 -11 38 -10 41 -9 43 -7 45 -5 46 -3 47 -2 48 0 48 2 49 4 49 6 48 8 48 9 48 11 47 13 46 15 45 0 0zm-402 1639l-63 -125 0 0 19 -23 20 -25 20 -27 19 -29 20 -30 19 -33 20 -34 19 -36 18 -37 18 -38 17 -40 16 -42 16 -42 15 -43 14 -45 12 -45 12 -45 10 -47 9 -46 8 -48 6 -47 4 -48 3 -47 2 -48 -1 -48 -2 -47 -4 -47 -6 -47 -8 -47 -10 -45 -12 -45 -14 -45 186 -198 16 49 14 50 11 51 9 52 6 52 5 53 2 54 1 54 -2 55 -3 55 -6 55 -7 55 -9 56 -10 55 -13 55 -14 55 -15 55 -17 54 -18 54 -20 53 -21 53 -22 52 -24 51 -25 50 -26 50 -27 48 -29 48 -29 46 -31 45 -31 43 -33 42 -34 39 0 0zm-107 545l-190 185 1 5 -1 -2 -1 -4 -1 -6 -2 -8 -3 -10 -2 -12 -3 -14 -2 -16 -3 -17 -2 -19 -2 -20 -2 -22 -1 -24 0 -25 0 -26 1 -28 2 -29 3 -30 4 -32 6 -33 7 -34 9 -36 11 -37 13 -39 16 -39 18 -42 21 -42 24 -43 26 -43 30 -43 32 -43 35 -42 63 125 -16 20 -14 19 -13 19 -12 18 -10 19 -10 20 -9 20 -8 22 -7 21 -7 23 -6 22 -4 23 -4 23 -3 23 -3 23 -1 22 -1 22 0 21 0 20 1 19 1 18 2 18 2 15 2 15 2 13 2 11 2 10 2 8 2 6 1 5 1 2 0 1 1 4zm-525 323l161 -233 0 0 38 25 35 21 32 17 29 14 26 10 24 8 20 4 16 2 13 0 9 -1 3 -1 -4 2 -12 8 -17 17 -18 23 -11 19 -6 12 -1 4 0 -1 1 -6 1 -7 0 -9 1 -9 -1 -10 0 -10 -1 -9 -1 -8 0 -7 -1 -6 -1 -5 0 -2 0 0 190 -185 0 3 1 4 1 6 1 9 1 10 2 12 1 13 0 15 0 16 0 17 -1 19 -3 20 -4 23 -7 26 -10 31 -17 37 -25 43 -34 43 -37 36 -35 25 -30 14 -27 8 -25 4 -24 0 -25 -3 -27 -6 -28 -9 -30 -11 -32 -16 -34 -18 -38 -22 -39 -26 0 0zm-1502 -2248l190 -185 0 0 9 33 14 42 19 48 24 55 29 61 32 66 37 70 40 75 43 78 46 80 49 84 52 86 53 87 55 88 57 89 58 89 59 89 59 89 60 87 60 85 60 83 59 81 59 77 57 74 56 70 55 65 52 61 50 54 47 49 45 42 41 36 37 27 -161 233 -41 -31 -44 -37 -46 -44 -49 -51 -52 -56 -53 -61 -55 -66 -57 -71 -58 -75 -59 -78 -59 -81 -61 -84 -60 -86 -60 -87 -60 -89 -59 -89 -58 -90 -58 -90 -55 -89 -54 -87 -51 -86 -50 -85 -46 -81 -44 -79 -41 -75 -37 -72 -33 -67 -30 -62 -25 -58 -20 -52 -16 -47 -11 -42 0 0z"/> </g> <g> <path class="fil4" d="M7113 7002c36,625 -1453,1177 -1604,-34 -199,-1588 1544,-1025 1604,34z"/> <path id="1" class="fil5" d="M5445 7026l128 -117 0 0 17 105 25 96 31 86 37 76 43 68 48 60 52 51 56 44 60 36 63 28 66 21 67 15 69 9 70 2 70 -4 70 -9 69 -14 68 -19 65 -23 64 -27 59 -31 56 -33 51 -36 45 -37 39 -37 32 -37 26 -35 21 -35 17 -37 12 -40 7 -45 1 -50 129 -110 -2 68 -11 70 -22 72 -33 74 -43 72 -49 67 -55 63 -59 56 -62 50 -65 46 -67 40 -70 36 -71 31 -74 26 -74 21 -75 15 -76 10 -75 4 -75 -3 -73 -9 -72 -15 -70 -23 -67 -31 -64 -38 -60 -46 -55 -54 -51 -64 -46 -72 -39 -82 -33 -91 -27 -102 -18 -112 0 0zm1733 -79l-129 110 0 0 -10 -93 -19 -91 -27 -88 -35 -85 -42 -81 -49 -77 -55 -73 -60 -68 -64 -62 -69 -57 -71 -52 -74 -45 -75 -38 -77 -32 -77 -25 -77 -17 -76 -10 -73 -2 -70 6 -67 14 -60 21 -54 28 -45 32 -35 35 -30 39 -29 50 -26 66 -22 82 -16 98 -7 112 2 126 13 139 -128 117 -13 -146 -3 -134 8 -125 19 -116 29 -108 41 -102 55 -96 66 -87 72 -71 74 -53 75 -39 76 -27 77 -16 79 -7 79 2 81 11 81 18 80 26 80 33 78 40 77 47 73 52 71 59 66 65 62 70 57 75 51 81 44 85 37 89 29 94 21 99 11 102 0 0z"/> </g> <g> <path class="fil6" d="M6646 7415c-325,172 -806,138 -878,-436 -126,-1006 811,-835 1097,-268 -312,34 -541,291 -219,704z"/> <path id="1" class="fil5" d="M5736 7008l64 -58 0 0 8 51 10 48 12 45 14 43 16 39 18 36 20 34 21 31 23 29 24 26 26 23 27 21 28 19 29 16 30 14 31 12 31 10 32 8 33 5 33 4 34 2 33 0 34 -2 33 -4 34 -5 33 -7 33 -8 32 -10 32 -11 31 -12 31 -14 29 -15 -18 75 -32 16 -33 15 -34 13 -34 12 -35 10 -35 9 -35 7 -35 6 -36 4 -35 2 -35 0 -35 -2 -35 -4 -34 -6 -34 -8 -32 -10 -33 -12 -31 -15 -30 -17 -29 -20 -29 -22 -26 -24 -26 -27 -24 -30 -22 -32 -20 -36 -19 -38 -17 -41 -15 -44 -13 -47 -10 -50 -8 -54 0 0zm1110 -257l37 -81 -49 76 -28 -52 -32 -48 -34 -47 -38 -43 -41 -41 -42 -38 -45 -34 -46 -32 -47 -28 -48 -24 -49 -21 -49 -16 -49 -13 -49 -9 -48 -4 -47 0 -45 4 -43 9 -41 13 -37 18 -34 21 -29 23 -25 27 -22 31 -21 36 -18 45 -16 52 -12 60 -8 68 -3 75 3 82 9 90 -64 58 -9 -92 -3 -86 3 -80 8 -74 14 -69 20 -65 25 -61 32 -56 37 -52 42 -43 43 -36 45 -28 45 -21 47 -16 48 -9 49 -5 49 0 51 4 50 9 51 14 51 17 50 21 49 25 49 28 47 33 45 35 44 39 41 41 39 45 35 47 33 50 29 53 -49 75zm49 -75c6,12 -3,37 -20,56 -17,19 -35,25 -41,14l61 -70zm-258 777l18 -75 -38 74 -29 -39 -26 -37 -22 -37 -20 -36 -17 -35 -14 -35 -12 -33 -8 -33 -6 -32 -4 -31 -1 -31 1 -30 4 -30 7 -30 9 -29 12 -30 16 -29 17 -28 20 -27 22 -24 22 -22 24 -19 24 -18 25 -16 25 -14 27 -12 26 -11 28 -9 28 -8 29 -7 30 -5 29 -5 -37 81 -28 4 -28 5 -26 6 -26 8 -25 8 -23 10 -23 10 -20 11 -20 13 -17 12 -15 13 -14 13 -11 13 -10 13 -9 14 -7 14 -7 17 -6 18 -5 21 -3 23 -1 25 1 26 3 28 6 29 8 30 11 32 13 32 16 34 20 35 22 36 25 37 28 38 -38 74zm38 -74c8,9 1,34 -15,54 -17,20 -36,29 -43,19l58 -73z"/> </g> <path class="fil21 str1" d="M6646 7415c-69,37 -145,64 -223,79 -23,-22 -45,-47 -67,-73 -487,-588 -171,-954 265,-1002 99,76 185,176 244,292 -312,34 -541,291 -219,704z"/> <g> <path class="fil13" d="M8823 18493c925,-393 1511,-816 2322,-1369 183,-116 1439,1538 1157,1536l-3511 -25 32 -142z"/> <path id="1" class="fil5" d="M11156 17054l-23 141 3 -2 -75 51 -74 51 -73 50 -72 49 -71 49 -71 48 -69 47 -70 47 -68 46 -69 46 -68 45 -68 44 -68 45 -69 43 -68 43 -69 43 -69 42 -69 42 -70 41 -71 41 -71 40 -72 40 -74 40 -74 39 -76 39 -76 39 -78 38 -80 39 -81 37 -83 38 -84 37 -87 38 47 -154 86 -37 83 -37 81 -37 80 -37 78 -37 77 -38 75 -38 74 -38 73 -39 72 -39 71 -39 70 -40 69 -40 68 -40 69 -41 67 -41 68 -42 67 -43 67 -42 67 -44 67 -44 68 -44 68 -46 68 -45 69 -47 69 -47 70 -48 71 -48 72 -50 73 -50 74 -51 76 -51 3 -2zm-3 2c35,-24 60,-13 55,25 -4,37 -36,87 -72,112l17 -137zm1107 1685l83 -162 0 0 0 2 -54 58 -10 28 -2 -17 -8 -33 -15 -41 -21 -48 -28 -54 -32 -59 -37 -63 -42 -66 -45 -70 -49 -72 -51 -73 -54 -74 -56 -75 -57 -74 -58 -73 -58 -72 -58 -69 -58 -67 -56 -63 -55 -59 -53 -54 -51 -49 -47 -43 -44 -36 -39 -28 -35 -21 -28 -12 -17 -3 8 -4 23 -141 49 -17 34 5 35 15 38 23 42 30 45 37 49 44 51 49 54 55 55 60 57 64 58 67 59 70 59 72 58 74 57 74 56 75 54 75 52 74 49 72 46 71 42 67 38 64 33 61 29 55 22 51 17 47 10 41 3 43 -22 73 -80 85 -45 11 0 0zm-3428 -187l3511 25 -83 162 -3510 -25 -21 -46 103 -116zm-82 162c-28,0 -31,-36 -8,-81 23,-45 63,-81 90,-81l-82 162zm135 -258l-32 143 -124 69 32 -143 85 -111 39 42zm-124 69c9,-41 44,-89 78,-108 35,-19 55,-1 46,39l-124 69z"/> </g> <g> <path class="fil14" d="M11541 17418c48,53 98,110 149,170l-568 370c-52,34 -122,19 -155,-32l0 0c-34,-52 -19,-122 32,-156l542 -352z"/> <path id="1" class="fil5" d="M11685 17623l10 -69 -34 71 -5 -5 -4 -6 -5 -5 -5 -6 -5 -6 -4 -5 -5 -6 -5 -5 -5 -6 -4 -5 -5 -6 -5 -5 -4 -5 -5 -6 -5 -5 -4 -5 -5 -6 -5 -5 -4 -5 -5 -6 -5 -5 -4 -5 -5 -5 -5 -5 -4 -5 -5 -6 -4 -5 -5 -5 -4 -5 -5 -5 -5 -5 -4 -5 57 -74 5 5 4 5 5 5 4 5 5 5 5 5 4 5 5 5 5 6 4 5 5 5 4 5 5 5 5 6 5 5 4 5 5 6 5 5 4 6 5 5 5 5 4 6 5 5 5 6 5 5 4 6 5 5 5 6 5 6 4 5 5 6 5 6 -34 71zm34 -71c8,9 1,33 -15,53 -16,21 -35,30 -43,20l58 -73zm-592 372l568 -370 -10 69 -568 370 0 0 10 -69zm-192 27l64 -51 -3 -10 3 4 3 4 4 4 3 4 4 3 4 4 4 3 4 2 4 3 4 3 5 2 4 2 5 2 4 1 5 2 5 1 5 1 4 0 5 1 5 0 4 0 5 0 5 -1 4 -1 4 0 5 -1 4 -2 3 -1 4 -2 3 -1 3 -2 3 -1 -10 69 -7 5 -7 3 -7 4 -7 3 -7 2 -6 2 -7 2 -6 1 -6 1 -7 1 -6 0 -6 0 -6 0 -6 -1 -6 -1 -6 -1 -6 -1 -5 -2 -6 -2 -5 -2 -6 -2 -5 -3 -5 -3 -5 -3 -5 -3 -5 -4 -4 -4 -4 -4 -5 -5 -4 -4 -3 -5 -4 -6 -2 -10zm64 -51l0 0 -64 51 0 0 61 -61 3 10zm6 -164l-11 69 0 0 -2 2 -2 1 -1 1 -1 1 -1 1 0 1 -1 0 0 0 0 0 0 1 -1 1 0 1 -1 1 0 2 -1 3 -1 3 0 3 -1 3 0 3 0 4 0 4 0 4 0 5 1 4 1 4 1 5 2 4 1 5 2 4 2 5 3 4 2 5 -59 71 -3 -5 -3 -6 -3 -5 -3 -6 -2 -6 -2 -6 -1 -6 -1 -7 -1 -6 -1 -6 0 -7 -1 -7 1 -7 0 -7 1 -8 2 -7 2 -8 2 -8 3 -8 3 -9 4 -8 5 -9 5 -9 5 -9 6 -9 7 -8 7 -8 7 -7 7 -7 7 -6 7 -5 8 -5 0 0zm530 -283l-541 352 11 -69 541 -353 23 -2 -34 72zm11 -70c17,-11 29,-5 26,15 -3,19 -19,44 -37,55l11 -70z"/> </g> <g> <path class="fil14" d="M11267 17163c50,35 110,88 176,153l-558 364c-51,33 -121,18 -155,-33l0 0c-33,-52 -19,-122 33,-155l504 -329z"/> <path id="1" class="fil5" d="M11438 17351l10 -69 -33 72 -6 -6 -6 -6 -6 -6 -7 -6 -6 -6 -5 -5 -6 -6 -6 -6 -6 -5 -6 -5 -6 -6 -5 -5 -6 -5 -6 -5 -5 -5 -6 -5 -5 -5 -6 -4 -5 -5 -5 -4 -5 -5 -6 -4 -5 -4 -5 -4 -5 -4 -5 -4 -5 -4 -5 -3 -5 -4 -4 -3 -5 -4 -5 -3 54 -77 5 3 5 3 5 4 5 4 5 3 5 4 5 4 5 4 5 4 6 5 5 4 5 4 6 5 5 5 6 4 5 5 6 5 5 5 6 5 6 5 5 6 6 5 6 5 6 6 6 5 6 6 6 6 6 6 6 6 6 6 6 6 6 6 -33 72zm33 -72c9,8 3,32 -13,53 -15,20 -35,30 -43,22l56 -75zm-580 366l557 -363 -10 69 -558 363 0 0 11 -69zm-193 28l64 -52 -2 -10 3 4 3 4 3 4 4 4 4 3 3 4 4 3 4 3 5 2 4 3 4 2 5 2 4 2 5 1 5 2 4 1 5 1 5 0 5 1 4 0 5 0 5 0 4 -1 5 0 4 -1 4 -1 4 -2 4 -1 3 -1 4 -2 3 -2 3 -1 -11 69 -7 5 -7 4 -7 3 -6 3 -7 2 -7 2 -6 2 -6 1 -7 1 -6 1 -6 0 -6 0 -6 0 -6 -1 -6 -1 -6 -1 -6 -1 -6 -2 -5 -2 -6 -2 -5 -2 -5 -3 -5 -3 -5 -3 -5 -3 -5 -4 -5 -4 -4 -4 -4 -5 -4 -4 -4 -5 -3 -5 -3 -10zm64 -52l0 0 -64 52 0 0 62 -62 2 10zm6 -164l-10 69 0 0 -2 2 -2 1 -2 2 -1 1 0 0 -1 1 0 0 0 0 0 1 -1 0 0 1 -1 1 0 2 -1 2 0 2 -1 3 -1 3 0 3 0 4 -1 3 0 4 1 5 0 4 1 4 1 5 1 4 1 5 2 4 2 5 2 4 2 4 3 5 -59 72 -4 -6 -3 -5 -3 -6 -2 -6 -2 -6 -2 -6 -2 -6 -1 -6 -1 -7 -1 -6 0 -7 0 -7 0 -7 1 -7 1 -7 1 -8 2 -8 3 -8 2 -8 4 -8 4 -9 4 -9 5 -9 6 -9 6 -8 7 -9 6 -8 7 -7 8 -7 7 -6 7 -5 7 -5 0 0zm494 -259l-504 328 10 -69 504 -329 22 -3 -32 73zm10 -70c18,-11 30,-5 27,15 -3,19 -19,44 -37,55l10 -70z"/> </g> <g> <path class="fil14" d="M8823 18493c112,-48 220,-96 324,-145l1909 0c314,-190 625,-331 903,-416 272,371 474,729 343,728l-1685 -12 -1826 -13 32 -142z"/> <path id="1" class="fil5" d="M9167 18307l-41 81 10 -2 -10 4 -9 5 -10 4 -10 5 -10 5 -10 4 -10 5 -10 4 -10 5 -10 4 -10 5 -10 5 -10 4 -10 5 -10 4 -10 5 -10 4 -10 5 -11 4 -10 5 -10 4 -10 5 -11 5 -10 4 -11 5 -10 4 -10 5 -11 4 -10 5 -11 4 -10 5 -11 4 24 -77 10 -4 11 -5 10 -4 10 -5 11 -4 10 -5 11 -4 10 -5 10 -4 10 -5 11 -4 10 -5 10 -4 10 -5 10 -4 10 -5 10 -4 10 -5 10 -4 10 -5 10 -4 10 -5 10 -4 10 -5 10 -4 10 -5 9 -4 10 -5 10 -4 10 -5 9 -5 10 -4 10 -3zm-10 3c17,-8 26,3 20,23 -6,21 -24,45 -41,53l21 -76zm1879 78l-1910 0 41 -81 1910 0 -27 77 -14 4zm41 -81c14,0 15,18 4,41 -11,22 -32,40 -45,40l41 -81zm912 -412l-59 73 14 3 -25 8 -27 9 -26 9 -26 9 -27 9 -27 10 -27 10 -27 10 -27 11 -28 11 -27 11 -28 11 -28 12 -28 12 -28 13 -28 13 -28 13 -28 13 -29 14 -28 14 -29 14 -29 15 -28 15 -29 15 -29 15 -29 16 -29 16 -29 16 -29 17 -29 17 -29 17 -29 18 13 -72 30 -18 29 -17 30 -18 29 -16 30 -17 29 -16 30 -17 29 -15 30 -16 29 -15 29 -15 29 -14 29 -14 29 -14 29 -14 29 -13 29 -13 28 -13 29 -12 28 -13 28 -11 28 -12 28 -11 28 -11 27 -10 28 -10 27 -10 27 -10 27 -9 27 -9 27 -8 26 -9 15 3zm-15 -3c16,-5 22,9 14,31 -8,22 -28,44 -44,48l30 -79zm307 808l41 -81 0 0 8 0 3 -1 -6 4 -11 14 -6 11 0 -1 1 -7 -1 -11 -2 -14 -4 -16 -5 -18 -7 -19 -8 -21 -10 -22 -11 -23 -12 -25 -13 -26 -14 -27 -16 -27 -16 -29 -18 -30 -18 -30 -20 -31 -20 -32 -21 -32 -22 -33 -22 -34 -23 -33 -24 -34 -24 -35 -25 -34 -25 -35 59 -73 25 35 25 35 24 34 24 35 23 33 23 34 22 33 21 32 20 32 20 32 18 30 18 30 16 29 16 28 15 27 13 27 12 25 12 24 9 23 9 21 7 21 6 19 4 18 3 17 1 17 -1 17 -5 21 -13 28 -23 28 -21 14 -16 5 -15 1 0 0zm-1644 -92l1685 11 -41 81 -1685 -11 0 0 41 -81zm-41 81c-13,-1 -15,-19 -4,-41 12,-22 32,-41 45,-40l-41 81zm-1784 -94l1825 13 -41 81 -1826 -13 -10 -23 52 -58zm-42 81c-13,0 -15,-18 -4,-41 12,-22 32,-40 46,-40l-42 81zm84 -201l-32 143 -62 35 32 -143 43 -56 19 21zm-62 35c4,-20 22,-45 39,-54 17,-10 27,-1 23,19l-62 35z"/> </g> <g> <path class="fil14" d="M6432 17373l1000 0c62,0 112,51 112,113l0 0c0,61 -50,112 -112,112l-1000 0c-62,0 -112,-51 -112,-112l0 0c0,-62 50,-113 112,-113z"/> <path id="1" class="fil5" d="M7412 17414l-1000 0 41 -81 1000 0 0 0 -41 81zm165 46l-65 52 0 0 0 -5 0 -4 -1 -5 -1 -4 -1 -5 -1 -4 -1 -5 -2 -4 -2 -4 -2 -5 -3 -4 -2 -4 -3 -4 -3 -4 -4 -3 -3 -4 -3 -3 -4 -4 -4 -3 -4 -3 -4 -2 -5 -3 -4 -2 -5 -2 -4 -2 -5 -1 -5 -2 -4 -1 -5 -1 -5 -1 -5 0 -5 0 41 -81 6 0 7 1 6 0 6 2 6 1 6 2 5 2 6 2 5 2 6 3 5 3 5 3 5 3 4 4 5 4 4 4 4 4 4 5 3 4 4 5 3 5 3 5 3 6 2 5 3 6 2 6 1 6 2 6 1 7 1 7 0 6 1 8 0 0zm-33 26l0 0 0 0 0 0 33 -26 -33 26zm-132 152l41 -81 0 0 5 0 5 0 4 -1 5 -1 4 -1 4 -1 4 -1 4 -2 3 -1 3 -2 3 -1 2 -2 2 -1 2 -2 1 -1 1 -1 1 0 0 -1 1 0 0 -1 0 0 0 0 1 -1 0 -1 1 -2 0 -2 1 -2 1 -3 0 -3 1 -4 0 -3 0 -4 65 -52 -1 7 0 8 -1 7 -2 8 -2 8 -2 8 -3 9 -3 9 -4 9 -5 8 -5 9 -6 9 -6 8 -6 9 -7 7 -6 7 -7 7 -7 6 -7 5 -6 5 -7 4 -7 4 -6 3 -7 3 -7 3 -6 2 -7 2 -6 2 -7 1 -6 1 -7 0 -6 0 0 0zm-959 -81l1000 0 -41 81 -1000 0 0 0 41 -81zm-165 -45l64 -52 0 0 0 4 1 4 0 5 1 4 1 5 1 4 2 5 2 4 2 5 2 4 2 4 3 4 3 4 3 4 3 4 3 3 4 4 4 3 3 3 4 3 5 2 4 3 4 2 5 2 4 2 5 2 5 1 5 1 5 1 5 1 5 0 5 0 -41 81 -7 0 -6 0 -7 -1 -6 -1 -6 -2 -5 -1 -6 -2 -6 -3 -5 -2 -5 -3 -5 -3 -5 -3 -5 -3 -5 -4 -4 -4 -4 -4 -4 -4 -4 -4 -4 -5 -3 -5 -4 -5 -3 -5 -2 -5 -3 -6 -2 -6 -2 -6 -2 -6 -1 -6 -2 -7 0 -6 -1 -7 0 -7 0 0zm32 -26l0 0 0 0 0 0 -32 26 32 -26zm133 -153l-41 81 0 0 -5 0 -5 0 -5 1 -4 1 -5 1 -4 1 -4 1 -3 2 -4 1 -3 2 -2 1 -3 2 -2 1 -1 2 -2 1 -1 1 0 1 -1 0 0 0 0 1 -1 0 0 1 0 0 -1 2 -1 1 0 2 -1 2 0 3 -1 3 0 4 -1 4 0 4 -64 52 0 -8 1 -7 1 -8 1 -8 2 -8 2 -8 3 -9 4 -8 4 -9 4 -9 5 -9 6 -9 6 -8 6 -8 7 -8 7 -7 6 -6 7 -6 7 -6 7 -5 6 -4 7 -4 7 -3 6 -3 7 -3 6 -2 7 -2 7 -1 6 -2 7 0 6 -1 7 0 0 0z"/> </g> <ellipse class="fil22" cx="8956" cy="6383" rx="396" ry="408"/> <ellipse class="fil15" cx="8956" cy="6383" rx="252" ry="260"/> <ellipse class="fil9" cx="8707" cy="6132" rx="169" ry="174"/> <ellipse class="fil22" cx="11488" cy="6488" rx="256" ry="352"/> <ellipse class="fil15" cx="11488" cy="6488" rx="153" ry="210"/> <ellipse class="fil9" cx="11327" cy="6298" rx="138" ry="190"/> <ellipse class="fil9" cx="11543" cy="6578" rx="64" ry="88"/> <ellipse class="fil9" cx="9035" cy="6520" rx="67" ry="69"/> <path class="fil23" d="M7215 6370c0,0 282,-248 359,-633 77,-386 -128,-625 -51,-1293 77,-667 428,-950 1155,-916 728,35 1858,437 2714,291 856,-145 1275,-342 1224,-479 -52,-137 -908,-180 -993,-163 -86,18 -631,-72 -631,-72 0,0 739,-212 760,-420 22,-208 -1050,-449 -1871,-273 -821,175 -1313,503 -1313,503 0,0 624,-569 153,-602 -470,-33 -1608,547 -1685,1182 -77,635 11,1127 11,1127 0,0 -263,-1061 -624,-919 -361,142 -405,503 -252,864 154,362 449,745 449,745 0,0 -853,-668 -842,-351 10,318 469,722 469,722 0,0 559,176 690,384 132,208 278,303 278,303z"/> <path class="fil6" d="M7621 6663c43,791 383,1385 1076,1747 -387,-85 -844,-310 -1408,-749 0,0 271,-222 232,-366 -38,-144 -72,-349 -27,-465 44,-117 127,-167 127,-167z"/> <path class="fil6" d="M8033 4090c0,0 302,-92 934,103 972,300 2129,692 2983,-42l-37 -69c0,0 -512,192 -954,218 -442,26 -1235,-55 -1598,-165 -363,-111 -860,-155 -1102,-134 -242,21 -226,89 -226,89z"/> <path class="fil6" d="M10530 7318c11,-341 62,-1552 303,-2019 49,-97 -268,1382 -173,2058l-130 -39z"/> <path class="fil24" d="M10039 6680c-143,372 -507,636 -934,636 -500,0 -914,-361 -988,-834 199,330 590,553 1039,553 351,0 667,-137 883,-355z"/> <path class="fil25" d="M11854 6999c-123,155 -271,251 -414,251 -247,0 -403,-283 -391,-664 87,313 313,509 601,474 69,-8 138,-29 204,-61z"/> <g> <path class="fil5" d="M10635 7804c-14,2 -18,-15 -7,-37 10,-23 30,-42 44,-44l-37 81zm254 -269l63 -61 0 0 4 22 1 22 -1 22 -3 21 -5 22 -8 22 -11 23 -12 21 -15 20 -15 18 -16 15 -15 14 -16 12 -15 10 -15 9 -16 8 -15 8 -14 6 -15 6 -14 5 -14 4 -13 4 -12 4 -12 3 -10 2 -10 2 -8 2 -8 1 -6 1 -4 1 -3 0 -1 0 37 -81 1 0 2 0 4 -1 6 0 6 -2 8 -1 9 -2 10 -2 10 -3 12 -3 11 -4 13 -4 12 -4 12 -5 13 -6 12 -5 12 -7 11 -6 10 -7 9 -7 8 -7 7 -6 5 -6 4 -5 3 -6 3 -6 3 -9 2 -10 2 -13 1 -15 -1 -17 -3 -19 0 0zm-397 -153l36 -81 1 0 4 -1 5 0 7 -1 8 -1 11 -1 11 -1 13 -1 14 -1 15 0 16 0 16 0 18 0 18 1 18 2 18 2 19 3 19 3 19 5 18 5 18 6 18 7 17 9 16 9 15 11 15 12 13 13 12 15 11 17 9 18 7 20 5 22 -63 61 -5 -18 -6 -17 -8 -16 -9 -14 -11 -13 -11 -12 -13 -11 -15 -10 -15 -9 -15 -8 -17 -6 -17 -6 -17 -5 -18 -4 -18 -4 -17 -2 -18 -2 -18 -2 -17 -1 -16 0 -16 0 -16 0 -14 0 -13 1 -13 1 -11 1 -9 1 -9 1 -6 0 -5 1 -3 0 -1 1zm0 0c-14,2 -18,-14 -9,-36 10,-23 30,-43 45,-45l-36 81z"/> </g> <path class="fil6" d="M10403 7618c0,0 177,-108 371,-81 195,27 62,126 39,133 -23,7 -206,61 -330,54 -125,-7 -80,-106 -80,-106z"/> <path class="fil26" d="M9054 8867c359,83 729,121 1111,101 -100,242 -1021,215 -1111,-101z"/> <path class="fil6" d="M6988 12860c716,657 1542,649 1542,649 0,0 -108,223 -338,271 -230,47 -770,-40 -1238,-406 -689,-540 -1487,-1685 -906,-2597 -82,719 321,1514 940,2083z"/> <path class="fil6" d="M12089 11571c0,0 -45,-364 -109,-588 -64,-224 -89,-320 -89,-320 0,0 799,371 1585,250 786,-122 1087,-339 1087,-339l0 211c0,0 -253,311 -969,605 -716,295 -1505,181 -1505,181z"/> <path class="fil27" d="M7799 10398c279,-258 599,-557 641,-955 33,422 -163,897 -365,1261l-276 -306z"/> <path class="fil6" d="M6429 10247c0,0 571,328 880,580 310,252 416,382 416,382l100 -193c0,0 -241,-278 -721,-510 -479,-232 -675,-259 -675,-259z"/> <path class="fil28" d="M8914 10650c-65,440 -299,783 -299,783l501 1271 -283 -156c0,0 -304,-665 -494,-981 -191,-316 -316,-412 -316,-412 0,0 361,-323 530,-706 169,-382 197,-1006 197,-1006 186,466 245,659 164,1207z"/> <path class="fil28" d="M9121 13534l2765 392 9 145 -3423 -51c0,0 281,-198 344,-380 64,-182 50,-270 50,-270 88,-56 220,-96 268,-350l-13 514z"/> <path class="fil29" d="M11435 14820l141 -404c0,0 -3143,-133 -3671,-160 -527,-27 -701,-57 -701,-57l-63 127c1442,315 2847,458 4294,494z"/> <polygon class="fil29" points="9940,14947 10397,16743 9325,16978 9881,14914 "/> <polygon class="fil29" points="6367,16571 8322,16676 8230,16972 "/> <path class="fil30" d="M9140 17746l1590 -505c0,0 -772,572 -1050,711 -278,139 -695,324 -695,324l155 -530z"/> <path class="fil30" d="M6402 17117l-311 -43 -165 362c0,0 171,-178 285,-235 114,-57 191,-84 191,-84z"/> <path class="fil31" d="M14934 17887l534 -8 -19 -12868 -314 -338 -242 170 -14 4551c0,0 180,22 363,389 184,367 15,605 -139,601 -154,-3 -239,-36 -239,-36l70 7539z"/> <path class="fil32" d="M15575 4454l-32 -543 -215 -217 -339 728c0,0 189,-189 236,-225 46,-36 235,182 235,182l115 75z"/> </g> </g> </svg>