<?xml version="1.0" encoding="UTF-8"?>
<svg viewBox="0 0 161.42339 176.65103" xmlns="http://www.w3.org/2000/svg">
 <path transform="matrix(.37217 0 0 .37217 196.29 -381.28)" d="m-465.41 1028h315.72a10.63 10.63 0 0 1 10.63 10.63v198.04a10.63 10.63 0 0 1 -10.63 10.63h-315.72a10.63 10.63 0 0 1 -10.63 -10.63v-198.04a10.63 10.63 0 0 1 10.63 -10.63" fill="#008000" fill-rule="evenodd" stroke="#ccc" stroke-linecap="square" stroke-linejoin="round" stroke-width="7.0866"/>
 <path transform="matrix(.33032 0 0 .74527 97.922 -495.03)" d="m-234.5 867.38a8.1947 31.518 0 1 1 -16.389 0 8.1947 31.518 0 1 1 16.389 0z" fill="#fff" fill-rule="evenodd" stroke="#ccc" stroke-linecap="square" stroke-linejoin="round" stroke-width="7.0866"/>
 <path transform="matrix(.54676 0 0 .43835 147.79 -239.75)" d="m-229.45 819.47a8.8251 50.429 0 1 1 -17.65 0 8.8251 50.429 0 1 1 17.65 0z" fill="#fff" fill-rule="evenodd" stroke="#ccc" stroke-linecap="square" stroke-linejoin="round" stroke-width="7.0866"/>
 <path transform="matrix(.3312 0 0 .73664 110.61 -487.82)" d="m-234.5 867.38a8.1947 31.518 0 1 1 -16.389 0 8.1947 31.518 0 1 1 16.389 0z" fill="#fff" fill-rule="evenodd" stroke="#ccc" stroke-linecap="square" stroke-linejoin="round" stroke-width="7.0866"/>
 <path transform="matrix(.54676 0 0 .43835 160.96 -239.75)" d="m-229.45 819.47a8.8251 50.429 0 1 1 -17.65 0 8.8251 50.429 0 1 1 17.65 0z" fill="#fff" fill-rule="evenodd" stroke="#ccc" stroke-linecap="square" stroke-linejoin="round" stroke-width="7.0866"/>
 <path transform="matrix(.32551 -.18042 .18042 .32551 -31.229 -174.68)" d="m-158.85 697.18a8.1947 36.561 0 1 1 -16.389 0 8.1947 36.561 0 1 1 16.389 0z" fill="#fff" fill-rule="evenodd" stroke="#ccc" stroke-linecap="square" stroke-linejoin="round" stroke-width="7.0866"/>
 <path transform="matrix(.45287 0 0 .45287 136.55 -265.99)" d="m-223.15 779.13a25.845 51.69 0 1 1 -51.69 0 25.845 51.69 0 1 1 51.69 0z" fill="#fff" fill-rule="evenodd" stroke="#ccc" stroke-linecap="square" stroke-linejoin="round" stroke-width="7.0866"/>
 <path transform="matrix(.37217 0 0 .37217 107.98 -182.23)" d="m-200.46 637.3a27.106 27.106 0 1 1 -54.211 0 27.106 27.106 0 1 1 54.211 0z" fill="#fff" fill-rule="evenodd" stroke="#ccc" stroke-linecap="square" stroke-linejoin="round" stroke-width="7.0866"/>
 <path transform="matrix(-.05756 -.36769 .36769 -.05756 -233.48 74.524)" d="m-161.37 767.15a6.3036 35.931 0 1 1 -12.607 0 6.3036 35.931 0 1 1 12.607 0z" fill="#fff" fill-rule="evenodd" stroke="#ccc" stroke-linecap="square" stroke-linejoin="round" stroke-width="7.0866"/>
 <path transform="matrix(.33083 .17047 -.17047 .33083 182.39 -120.24)" d="m-158.85 697.18a8.1947 36.561 0 1 1 -16.389 0 8.1947 36.561 0 1 1 16.389 0z" fill="#fff" fill-rule="evenodd" stroke="#ccc" stroke-linecap="square" stroke-linejoin="round" stroke-width="7.0866"/>
 <path transform="matrix(.3469 -.13479 .13479 .3469 -38.606 -186.39)" d="m-161.37 767.15a6.3036 35.931 0 1 1 -12.607 0 6.3036 35.931 0 1 1 12.607 0z" fill="#fff" fill-rule="evenodd" stroke="#ccc" stroke-linecap="square" stroke-linejoin="round" stroke-width="7.0866"/>
 <path transform="matrix(-.33032 0 0 .74527 57.438 -495.03)" d="m-234.5 867.38a8.1947 31.518 0 1 1 -16.389 0 8.1947 31.518 0 1 1 16.389 0z" fill="#fff" fill-rule="evenodd" stroke="#ccc" stroke-linecap="square" stroke-linejoin="round" stroke-width="7.0866"/>
 <path transform="matrix(-.54676 0 0 .43835 7.5743 -239.75)" d="m-229.45 819.47a8.8251 50.429 0 1 1 -17.65 0 8.8251 50.429 0 1 1 17.65 0z" fill="#fff" fill-rule="evenodd" stroke="#ccc" stroke-linecap="square" stroke-linejoin="round" stroke-width="7.0866"/>
 <path transform="matrix(-.3312 0 0 .73664 44.75 -487.82)" d="m-234.5 867.38a8.1947 31.518 0 1 1 -16.389 0 8.1947 31.518 0 1 1 16.389 0z" fill="#fff" fill-rule="evenodd" stroke="#ccc" stroke-linecap="square" stroke-linejoin="round" stroke-width="7.0866"/>
 <path transform="matrix(-.54676 0 0 .43835 -5.5974 -239.75)" d="m-229.45 819.47a8.8251 50.429 0 1 1 -17.65 0 8.8251 50.429 0 1 1 17.65 0z" fill="#fff" fill-rule="evenodd" stroke="#ccc" stroke-linecap="square" stroke-linejoin="round" stroke-width="7.0866"/>
 <path transform="matrix(.07529 -.36447 -.36447 -.07529 380.14 61.788)" d="m-158.85 697.18a8.1947 36.561 0 1 1 -16.389 0 8.1947 36.561 0 1 1 16.389 0z" fill="#fff" fill-rule="evenodd" stroke="#ccc" stroke-linecap="square" stroke-linejoin="round" stroke-width="7.0866"/>
 <path transform="matrix(-.45287 0 0 .45287 18.814 -265.99)" d="m-223.15 779.13a25.845 51.69 0 1 1 -51.69 0 25.845 51.69 0 1 1 51.69 0z" fill="#fff" fill-rule="evenodd" stroke="#ccc" stroke-linecap="square" stroke-linejoin="round" stroke-width="7.0866"/>
 <path transform="matrix(-.37217 0 0 .37217 47.379 -182.23)" d="m-200.46 637.3a27.106 27.106 0 1 1 -54.211 0 27.106 27.106 0 1 1 54.211 0z" fill="#fff" fill-rule="evenodd" stroke="#ccc" stroke-linecap="square" stroke-linejoin="round" stroke-width="7.0866"/>
 <path transform="matrix(.35612 -.1081 -.1081 -.35612 240.11 310.81)" d="m-161.37 767.15a6.3036 35.931 0 1 1 -12.607 0 6.3036 35.931 0 1 1 12.607 0z" fill="#fff" fill-rule="evenodd" stroke="#ccc" stroke-linecap="square" stroke-linejoin="round" stroke-width="7.0866"/>
 <path transform="matrix(-.25241 .27349 .27349 .25241 -83.981 -49.744)" d="m-158.85 697.18a8.1947 36.561 0 1 1 -16.389 0 8.1947 36.561 0 1 1 16.389 0z" fill="#fff" fill-rule="evenodd" stroke="#ccc" stroke-linecap="square" stroke-linejoin="round" stroke-width="7.0866"/>
 <path transform="matrix(-.14309 -.34356 -.34356 .14309 387.29 -73.41)" d="m-161.37 767.15a6.3036 35.931 0 1 1 -12.607 0 6.3036 35.931 0 1 1 12.607 0z" fill="#fff" fill-rule="evenodd" stroke="#ccc" stroke-linecap="square" stroke-linejoin="round" stroke-width="7.0866"/>
 <path transform="matrix(.72716 0 0 .72716 21.697 9.2302)" d="m40.89325,33.71808h2.574c.594,0 1.276.022 2.332.066l.572.022 .418-.99-.088-.154c-1.782.088-3.102.132-4.818.132h-.814l.924-5.236c.066-.352.11-.528.198-.704l1.034-.044c.704-.022 1.408-.044 1.892-.044 1.364,0 2.266.198 2.288.528l.176,1.958h.528c.066-1.408.22-2.508.462-3.344-.462-.044-1.122-.066-1.518-.066-.066,0-.308,0-.836.022l-2.64.022c-.198.022-1.496.022-1.716.022-.814,0-1.408,0-2.53-.044l-.99-.022-.066.616 1.188.044c.528.022.77.198.77.594 0,.308-.088,1.012-.198,1.672l-1.914,11.088c-.088.396-.352.55-1.32.704l-.11.572 .902-.022c.682-.022 2.046-.044 2.486-.044l4.73.066h.22c.308,0 .858-.022 1.584-.044l.726-.022 .088-.792c.044-.44.154-1.1.352-2.178l.11-.572h-.594l-.352,1.32c-.22.792-.418,1.056-.902,1.166-.44.088-2.046.198-3.234.198-.902,0-1.386-.022-2.904-.154v-.088c0-.308.022-.484.044-.682l.946-5.566m20.79722-.968h-11.088v1.232h11.088v-1.232m0,4.312h-11.088v1.232h11.088v-1.232m17.17031,1.738-.572.374c-.638.418-1.122.66-1.342.66-.154,0-.286-.198-.286-.44 0-.22.044-.418.154-.88l1.65-6.534c.088-.374.154-.726.154-.902 0-.374-.22-.616-.572-.616-.638,0-1.474.396-2.816,1.342-1.386.99-2.156,1.76-3.234,3.278l.66-3.014c.088-.44.154-.77.154-.924 0-.418-.22-.682-.572-.682-.66,0-1.672.484-2.882,1.408-.968.748-1.408,1.21-2.838,3.146l.726-2.926c.088-.352.132-.682.132-.946 0-.418-.198-.682-.506-.682-.462,0-1.298.462-2.926,1.628l-.616.44 .154.44 .704-.462c.814-.506.88-.55 1.034-.55 .242,0 .396.22.396.55 0,1.122-.902,5.368-1.804,8.514l.066.242 1.496-.33 .484-2.244c.528-2.442 1.122-3.74 2.332-5.06 .924-1.012 1.914-1.672 2.53-1.672 .154,0 .242.176.242.462 0,.77-.484,3.278-1.386,7.128l-.352,1.474 .11.242 1.518-.33 .462-2.354c.352-1.782 1.1-3.432 2.068-4.51 1.21-1.342 2.31-2.112 3.014-2.112 .176,0 .286.198.286.55 0,.528-.066.836-.55,2.75-.352,1.386-.726,2.706-.946,3.454-.198.616-.286,1.188-.286,1.672 0,.55.242.88.66.88 .572,0 1.364-.462 3.52-2.068l-.22-.396m8.56556-4.994h.506c.176-1.43.33-2.244.528-2.816-.528-.33-1.298-.528-2.112-.528-.99,0-2.618.792-3.85,1.914-1.21,1.078-2.046,3.388-2.046,5.698 0,2.112.924,3.234 2.684,3.234 1.188,0 2.244-.44 3.454-1.43l1.1-.902-.176-.44-.33.22c-1.584,1.056-2.42,1.43-3.19,1.43-1.232,0-1.87-.88-1.87-2.618 0-2.376.77-4.664 1.848-5.5 .462-.352.99-.528 1.672-.528 .99,0 1.782.418 1.782.946v1.32m2.6235-5.962 .396.22c.638-1.034 1.078-1.342 1.958-1.342 .924,0 1.408.462 1.408,1.298 0,1.43-1.034,2.882-4.686,6.468v.462l1.364-.022c.396-.022 1.232-.022 1.54-.022 .286,0 1.1,0 1.496.022l1.364.022 .242-.902-.088-.242c-.572.132-1.034.198-1.628.198h-2.992l3.52-3.476c.814-.814 1.276-1.782 1.276-2.684 0-1.32-.946-2.156-2.42-2.156-.726,0-1.276.154-1.892.572l-.858,1.584" fill="#fff"/>
</svg>
